<?xml version="1.0" encoding="UTF-8"?><svg xmlns="http://www.w3.org/2000/svg" xmlns:xlink="http://www.w3.org/1999/xlink" viewBox="0 0 500 359.6"><defs><style>.cls-1,.cls-2,.cls-3,.cls-4{fill:none;}.cls-2{stroke-width:.5px;}.cls-2,.cls-3{stroke:#02fbff;}.cls-2,.cls-3,.cls-4{stroke-linecap:round;stroke-linejoin:round;}.cls-5{fill:#02234e;}.cls-6{fill:#f7a18c;}.cls-7{fill:#ffa28b;}.cls-8{clip-path:url(#clippath-1);}.cls-9{clip-path:url(#clippath-3);}.cls-10{clip-path:url(#clippath-2);}.cls-11{fill:#02fbff;}.cls-12{clip-path:url(#clippath);}.cls-4{stroke:url(#New_Pattern_Swatch_1);}.cls-13{fill:#3490ce;}</style><clipPath id="clippath"><rect class="cls-1" x="136.1" width="363.9" height="155.8"/></clipPath><pattern id="New_Pattern_Swatch_1" x="0" y="0" width="52.2" height="52.2" patternTransform="translate(-168.5 -202)" patternUnits="userSpaceOnUse" viewBox="0 0 52.2 52.2"><rect class="cls-1" x="0" y="0" width="52.2" height="52.2"/><rect class="cls-6" x="0" y="0" width="52.2" height="52.2"/></pattern><clipPath id="clippath-1"><rect class="cls-1" width="118" height="250"/></clipPath><clipPath id="clippath-2"><rect class="cls-1" y="197.4" width="381.6" height="162.1"/></clipPath><clipPath id="clippath-3"><rect class="cls-1" x="371.8" y="140.4" width="128.2" height="219.2"/></clipPath></defs><g id="BACKGROUND"><rect class="cls-5" width="500" height="359.6"/></g><g id="OBJECTS"><g class="cls-12"><polyline class="cls-4" points="491 -2.8 491 65.1 450.3 105.8 442.5 105.8 438.2 110 438.2 118.8"/><polyline class="cls-4" points="483.3 -2.8 483.3 56.8 479.3 60.8 479.3 66.2 469.1 76.4 459.3 76.4 440.8 95 420.9 95"/><polyline class="cls-4" points="473.4 -2.8 473.4 50.5 465.3 58.6 452.1 58.6 427.7 82.9 405.4 82.9 399.1 89.3 391.1 89.3"/><polyline class="cls-4" points="461.8 -2.8 461.8 37.4 426.8 72.4 413.1 72.4"/><polyline class="cls-4" points="448.6 -2.8 448.6 33.4 429.7 52.3 414.3 52.3 409.7 56.9 404.9 56.9 395.9 65.9 387.3 65.9 383.5 62.1"/><polyline class="cls-4" points="439.2 -2.8 439.2 26.8 427.7 38.3 413.1 38.3 404.6 46.8 396.5 46.8"/><line class="cls-4" x1="427.7" y1="-2.8" x2="427.7" y2="14.4"/><polyline class="cls-4" points="417.8 -2.8 417.8 16.3 409.4 24.7 400.5 24.7 386 39.1 386 48.2 375.1 59.1 375.1 68.6 383.8 77.3 383.8 100 390.8 107.1 404.4 107.1"/><polyline class="cls-4" points="387.3 -2.8 377 7.6 377 34.8 370.3 41.5 362.7 41.5 355.2 49"/><polyline class="cls-4" points="341.6 -1.8 334.1 5.7 334.1 22 340.4 28.3 340.4 43.3 344 46.8 344 60.5 338.1 66.4"/><polyline class="cls-4" points="315.9 -1.8 327.4 9.7 327.4 40.3 332.8 45.7"/><polyline class="cls-4" points="305.2 -2.8 305.2 31.6 312 38.4"/><polyline class="cls-4" points="280.7 -2.8 280.7 25 291.2 35.5"/><polyline class="cls-4" points="289.2 -2.8 289.2 16.4 298.4 25.6 298.4 49 307.9 58.4"/><polyline class="cls-4" points="254.3 -2.8 271.1 14 271.1 33.8 275 37.7 282.3 37.7 288.8 44.1"/><polyline class="cls-4" points="245.4 -2.8 245.4 9.3 250.5 14.4 250.5 23.1 257.8 30.5"/><polyline class="cls-4" points="238 -2.8 238 20.7 246 28.6 246 44.1 239.9 50.1"/><polyline class="cls-4" points="216.3 -2.8 223.4 4.3 223.4 19.2 219.4 23.1 219.4 40 225.2 45.8"/><polyline class="cls-4" points="206.3 -2.8 206.3 17.1 201.2 22.2 201.2 40.1 221 60 235.5 60 243.6 68.1 276.7 68.1 283.5 74.9 320.2 74.9 327.2 81.9 327.2 90.3 367 130.2 406.9 130.2"/><polyline class="cls-4" points="175.9 -2.8 175.9 9.9 184.1 18.1"/><polyline class="cls-4" points="166.5 -2.8 166.5 12.7 157.6 21.7"/><polyline class="cls-4" points="348.6 -2.8 348.6 7.7 354.2 13.2 354.2 19.5 348 25.7"/><polyline class="cls-4" points="368.3 -2.8 359.6 6 359.6 17.8 366.2 24.4"/><path class="cls-11" d="M350.9,116c0-1,.8-1.8,1.8-1.8s1.8.8,1.8,1.8-.8,1.8-1.8,1.8-1.8-.8-1.8-1.8Z"/><path class="cls-11" d="M345.4,110.5c0-1,.8-1.8,1.8-1.8s1.8.8,1.8,1.8-.8,1.8-1.8,1.8-1.8-.8-1.8-1.8Z"/><path class="cls-11" d="M339.8,104.8c0-1,.8-1.8,1.8-1.8s1.8.8,1.8,1.8-.8,1.8-1.8,1.8-1.8-.8-1.8-1.8Z"/><path class="cls-11" d="M356.5,83.3c0-1,.8-1.8,1.8-1.8s1.8.8,1.8,1.8-.8,1.8-1.8,1.8-1.8-.8-1.8-1.8Z"/><path class="cls-11" d="M351,77.8c0-1,.8-1.8,1.8-1.8s1.8.8,1.8,1.8-.8,1.8-1.8,1.8-1.8-.8-1.8-1.8Z"/><path class="cls-11" d="M345.4,72.1c0-1,.8-1.8,1.8-1.8s1.8.8,1.8,1.8-.8,1.8-1.8,1.8-1.8-.8-1.8-1.8Z"/><path class="cls-11" d="M419.8,124.4c0-1,.8-1.8,1.8-1.8s1.8.8,1.8,1.8-.8,1.8-1.8,1.8-1.8-.8-1.8-1.8Z"/><path class="cls-11" d="M414.3,118.9c0-1,.8-1.8,1.8-1.8s1.8.8,1.8,1.8-.8,1.8-1.8,1.8-1.8-.8-1.8-1.8Z"/><path class="cls-11" d="M408.7,113.2c0-1,.8-1.8,1.8-1.8s1.8.8,1.8,1.8-.8,1.8-1.8,1.8-1.8-.8-1.8-1.8Z"/><path class="cls-11" d="M261.7,53.3c0-1,.8-1.8,1.8-1.8s1.8.8,1.8,1.8-.8,1.8-1.8,1.8-1.8-.8-1.8-1.8Z"/><path class="cls-11" d="M256.2,47.8c0-1,.8-1.8,1.8-1.8s1.8.8,1.8,1.8-.8,1.8-1.8,1.8-1.8-.8-1.8-1.8Z"/><path class="cls-11" d="M250.5,42.1c0-1,.8-1.8,1.8-1.8s1.8.8,1.8,1.8-.8,1.8-1.8,1.8-1.8-.8-1.8-1.8Z"/><path class="cls-11" d="M177.7,41c0-1,.8-1.8,1.8-1.8s1.8.8,1.8,1.8-.8,1.8-1.8,1.8-1.8-.8-1.8-1.8Z"/><path class="cls-11" d="M172.2,35.5c0-1,.8-1.8,1.8-1.8s1.8.8,1.8,1.8-.8,1.8-1.8,1.8-1.8-.8-1.8-1.8Z"/><path class="cls-11" d="M166.5,29.9c0-1,.8-1.8,1.8-1.8s1.8.8,1.8,1.8-.8,1.8-1.8,1.8-1.8-.8-1.8-1.8Z"/><path class="cls-11" d="M261.7,87.8c0-1,.8-1.8,1.8-1.8s1.8.8,1.8,1.8-.8,1.8-1.8,1.8-1.8-.8-1.8-1.8Z"/><path class="cls-11" d="M256.2,82.3c0-1,.8-1.8,1.8-1.8s1.8.8,1.8,1.8-.8,1.8-1.8,1.8-1.8-.8-1.8-1.8Z"/><path class="cls-11" d="M250.5,76.6c0-1,.8-1.8,1.8-1.8s1.8.8,1.8,1.8-.8,1.8-1.8,1.8-1.8-.8-1.8-1.8Z"/><path class="cls-11" d="M457.1,125.8c0-1,.8-1.8,1.8-1.8s1.8.8,1.8,1.8-.8,1.8-1.8,1.8-1.8-.8-1.8-1.8Z"/><path class="cls-11" d="M451.6,120.3c0-1,.8-1.8,1.8-1.8s1.8.8,1.8,1.8-.8,1.8-1.8,1.8-1.8-.8-1.8-1.8Z"/><path class="cls-11" d="M445.9,114.7c0-1,.8-1.8,1.8-1.8s1.8.8,1.8,1.8-.8,1.8-1.8,1.8-1.8-.8-1.8-1.8Z"/><circle class="cls-13" cx="367" cy="130.2" r="2.5"/><circle class="cls-2" cx="367" cy="130.2" r="7.2"/><circle class="cls-11" cx="320.1" cy="75" r="2.5"/><path class="cls-2" d="M312.9,75c0-4,3.2-7.2,7.2-7.2s7.2,3.2,7.2,7.2-3.2,7.2-7.2,7.2-7.2-3.2-7.2-7.2Z"/><circle class="cls-11" cx="201.2" cy="40.5" r="2.5"/><path class="cls-2" d="M194,40.5c0-4,3.2-7.2,7.2-7.2s7.2,3.2,7.2,7.2-3.2,7.2-7.2,7.2-7.2-3.2-7.2-7.2Z"/><circle class="cls-13" cx="427.7" cy="38.4" r="2.5"/><path class="cls-2" d="M420.5,38.4c0-4,3.2-7.2,7.2-7.2s7.2,3.2,7.2,7.2-3.2,7.2-7.2,7.2-7.2-3.2-7.2-7.2Z"/><circle class="cls-11" cx="427.7" cy="83.1" r="2.5"/><circle class="cls-2" cx="427.7" cy="83.1" r="7.2"/><circle class="cls-11" cx="461.8" cy="37.4" r="2.5"/><path class="cls-2" d="M454.6,37.4c0-4,3.2-7.2,7.2-7.2s7.2,3.2,7.2,7.2-3.2,7.2-7.2,7.2-7.2-3.2-7.2-7.2Z"/><circle class="cls-13" cx="157.6" cy="21.7" r="2.5"/><path class="cls-2" d="M150.4,21.7c0-4,3.2-7.2,7.2-7.2s7.2,3.2,7.2,7.2-3.2,7.2-7.2,7.2-7.2-3.2-7.2-7.2Z"/><circle class="cls-11" cx="282.5" cy="89.3" r="2.5"/><circle class="cls-2" cx="298.5" cy="75" r="3.6"/><path class="cls-2" d="M261.6,68.3c0-2,1.6-3.6,3.6-3.6s3.6,1.6,3.6,3.6-1.6,3.6-3.6,3.6-3.6-1.6-3.6-3.6Z"/><path class="cls-2" d="M442.3,65.7c0-2,1.6-3.6,3.6-3.6s3.6,1.6,3.6,3.6-1.6,3.6-3.6,3.6-3.6-1.6-3.6-3.6Z"/><circle class="cls-7" cx="410.4" cy="130.2" r="4"/><circle class="cls-11" cx="410.4" cy="130.2" r="1.7"/><circle class="cls-7" cx="438.2" cy="121.1" r="4"/><circle class="cls-13" cx="438.2" cy="121.1" r="1.7"/><path class="cls-7" d="M400.6,107.1c0-2.2,1.8-4,4-4s4,1.8,4,4-1.8,4-4,4-4-1.8-4-4Z"/><path class="cls-11" d="M403,107.1c0-.9.8-1.7,1.7-1.7s1.7.8,1.7,1.7-.8,1.7-1.7,1.7-1.7-.8-1.7-1.7Z"/><path class="cls-7" d="M416.5,95c0-2.2,1.8-4,4-4s4,1.8,4,4-1.8,4-4,4-4-1.8-4-4Z"/><circle class="cls-11" cx="420.5" cy="95" r="1.7"/><circle class="cls-7" cx="391.1" cy="89.3" r="4"/><path class="cls-11" d="M389.4,89.3c0-.9.8-1.7,1.7-1.7s1.7.8,1.7,1.7-.8,1.7-1.7,1.7-1.7-.8-1.7-1.7Z"/><path class="cls-7" d="M379,61.9c0-2.2,1.8-4,4-4s4,1.8,4,4-1.8,4-4,4-4-1.8-4-4Z"/><path class="cls-11" d="M381.3,61.9c0-.9.8-1.7,1.7-1.7s1.7.8,1.7,1.7-.8,1.7-1.7,1.7-1.7-.8-1.7-1.7Z"/><path class="cls-7" d="M392.4,46.8c0-2.2,1.8-4,4-4s4,1.8,4,4-1.8,4-4,4-4-1.8-4-4Z"/><circle class="cls-11" cx="396.5" cy="46.8" r="1.7"/><path class="cls-7" d="M362.6,24.7c0-2.2,1.8-4,4-4s4,1.8,4,4-1.8,4-4,4-4-1.8-4-4Z"/><path class="cls-11" d="M364.9,24.7c0-.9.8-1.7,1.7-1.7s1.7.8,1.7,1.7-.8,1.7-1.7,1.7-1.7-.8-1.7-1.7Z"/><path class="cls-7" d="M344.9,24.7c0-2.2,1.8-4,4-4s4,1.8,4,4-1.8,4-4,4-4-1.8-4-4Z"/><path class="cls-11" d="M347.2,24.7c0-.9.8-1.7,1.7-1.7s1.7.8,1.7,1.7-.8,1.7-1.7,1.7-1.7-.8-1.7-1.7Z"/><path class="cls-7" d="M351.2,49c0-2.2,1.8-4,4-4s4,1.8,4,4-1.8,4-4,4-4-1.8-4-4Z"/><path class="cls-11" d="M353.5,49c0-.9.8-1.7,1.7-1.7s1.7.8,1.7,1.7-.8,1.7-1.7,1.7-1.7-.8-1.7-1.7Z"/><circle class="cls-7" cx="332.8" cy="46.1" r="4"/><circle class="cls-13" cx="332.8" cy="46.1" r="1.7"/><circle class="cls-7" cx="337.6" cy="67.4" r="4"/><circle class="cls-13" cx="337.6" cy="67.4" r="1.7"/><path class="cls-7" d="M308.9,39.5c0-2.2,1.8-4,4-4s4,1.8,4,4-1.8,4-4,4-4-1.8-4-4Z"/><path class="cls-11" d="M311.3,39.5c0-.9.8-1.7,1.7-1.7s1.7.8,1.7,1.7-.8,1.7-1.7,1.7-1.7-.8-1.7-1.7Z"/><path class="cls-7" d="M304.6,59.1c0-2.2,1.8-4,4-4s4,1.8,4,4-1.8,4-4,4-4-1.8-4-4Z"/><path class="cls-11" d="M306.9,59.1c0-.9.8-1.7,1.7-1.7s1.7.8,1.7,1.7-.8,1.7-1.7,1.7-1.7-.8-1.7-1.7Z"/><path class="cls-7" d="M285.2,45.1c0-2.2,1.8-4,4-4s4,1.8,4,4-1.8,4-4,4-4-1.8-4-4Z"/><path class="cls-13" d="M287.5,45.1c0-.9.8-1.7,1.7-1.7s1.7.8,1.7,1.7-.8,1.7-1.7,1.7-1.7-.8-1.7-1.7Z"/><path class="cls-7" d="M285.2,34.5c0-2.2,1.8-4,4-4s4,1.8,4,4-1.8,4-4,4-4-1.8-4-4Z"/><path class="cls-11" d="M287.5,34.5c0-.9.8-1.7,1.7-1.7s1.7.8,1.7,1.7-.8,1.7-1.7,1.7-1.7-.8-1.7-1.7Z"/><path class="cls-7" d="M253.9,30.5c0-2.2,1.8-4,4-4s4,1.8,4,4-1.8,4-4,4-4-1.8-4-4Z"/><path class="cls-13" d="M256.2,30.5c0-.9.8-1.7,1.7-1.7s1.7.8,1.7,1.7-.8,1.7-1.7,1.7-1.7-.8-1.7-1.7Z"/><path class="cls-7" d="M236.2,50.1c0-2.2,1.8-4,4-4s4,1.8,4,4-1.8,4-4,4-4-1.8-4-4Z"/><circle class="cls-11" cx="240.2" cy="50.1" r="1.7"/><path class="cls-7" d="M221.2,46.1c0-2.2,1.8-4,4-4s4,1.8,4,4-1.8,4-4,4-4-1.8-4-4Z"/><circle class="cls-11" cx="225.2" cy="46.1" r="1.7"/><circle class="cls-7" cx="184.1" cy="18.5" r="4"/><circle class="cls-11" cx="184.1" cy="18.5" r="1.7"/><circle class="cls-7" cx="412.2" cy="72.4" r="4"/><circle class="cls-13" cx="412.2" cy="72.4" r="1.7"/><path class="cls-7" d="M423.7,15.5c0-2.2,1.8-4,4-4s4,1.8,4,4-1.8,4-4,4-4-1.8-4-4Z"/><path class="cls-11" d="M426,15.5c0-.9.8-1.7,1.7-1.7s1.7.8,1.7,1.7-.8,1.7-1.7,1.7-1.7-.8-1.7-1.7Z"/></g><g class="cls-8"><polyline class="cls-3" points="37.2 8.8 32.4 4 32.4 -3"/><polyline class="cls-3" points="24.3 8.8 28 5 28 -3"/><polyline class="cls-3" points="16.1 -3 19.6 .5 19.6 14.6 32.8 27.8 48.2 27.8 53.4 22.5 53.4 13.3"/><polyline class="cls-3" points="11.6 -3 11.6 2.9 13.3 4.6 13.3 22.2 39.2 48.1 56.1 48.1 62.6 41.7 66.6 41.7"/><polyline class="cls-3" points="4 -3.9 4 16.6 7.8 20.4 7.8 32.7 26.2 51.1 26.2 56.3 31.6 61.7"/><polyline class="cls-3" points="-3.2 41.3 3.5 48 3.5 55.9 20.8 73.3 40.7 73.3 45.6 78.3 45.6 87.7 39.8 93.5 34.8 93.5 28.8 99.4 28.8 107.6"/><polyline class="cls-3" points="-3.2 67.1 16.9 87.1 16.9 106.8 26.2 116.1 42.9 116.1 49 122.2 49 126"/><polyline class="cls-3" points="69.1 131.9 66.2 134.8 53.4 134.8 51.2 132.6 24.3 132.6 13.5 121.8 13.5 111.6 6.8 104.9 6.8 89 -3.3 78.9"/><polyline class="cls-3" points="-2 130.7 9 130.7 15.5 137.2 15.5 141.7"/><polyline class="cls-3" points="-2 142.8 3.4 148.2 20.6 148.2 24.5 152.1 46.7 152.1 50.4 155.8 64.5 155.8 71.4 148.8"/><polyline class="cls-3" points="-4.2 166.6 6.7 166.6 10.1 169.9 22.9 169.9 29.2 163.7 49 163.7 54.5 169.2 84.2 169.2 90.6 162.8 103.5 162.8"/><polyline class="cls-3" points="-4.2 182.7 13.3 182.7 21.4 190.8 49 190.8"/><polyline class="cls-3" points="-4.2 199.8 9.3 199.8 15 205.4 50.7 205.4 62.5 193.7 74.4 193.7"/><path class="cls-11" d="M47.7,113.2c0-1,.8-1.8,1.8-1.8s1.8.8,1.8,1.8-.8,1.8-1.8,1.8-1.8-.8-1.8-1.8Z"/><path class="cls-11" d="M42.2,107.7c0-1,.8-1.8,1.8-1.8s1.8.8,1.8,1.8-.8,1.8-1.8,1.8-1.8-.8-1.8-1.8Z"/><path class="cls-11" d="M36.6,102c0-1,.8-1.8,1.8-1.8s1.8.8,1.8,1.8-.8,1.8-1.8,1.8-1.8-.8-1.8-1.8Z"/><path class="cls-11" d="M42.2,182.9c0-1,.8-1.8,1.8-1.8s1.8.8,1.8,1.8-.8,1.8-1.8,1.8-1.8-.8-1.8-1.8Z"/><path class="cls-11" d="M36.7,177.4c0-1,.8-1.8,1.8-1.8s1.8.8,1.8,1.8-.8,1.8-1.8,1.8-1.8-.8-1.8-1.8Z"/><path class="cls-11" d="M31,171.7c0-1,.8-1.8,1.8-1.8s1.8.8,1.8,1.8-.8,1.8-1.8,1.8-1.8-.8-1.8-1.8Z"/><path class="cls-11" d="M34.8,225.1c0-1,.8-1.8,1.8-1.8s1.8.8,1.8,1.8-.8,1.8-1.8,1.8-1.8-.8-1.8-1.8Z"/><path class="cls-11" d="M29.3,219.6c0-1,.8-1.8,1.8-1.8s1.8.8,1.8,1.8-.8,1.8-1.8,1.8-1.8-.8-1.8-1.8Z"/><path class="cls-11" d="M23.6,214c0-1,.8-1.8,1.8-1.8s1.8.8,1.8,1.8-.8,1.8-1.8,1.8-1.8-.8-1.8-1.8Z"/><path class="cls-11" d="M59.2,71.4c0-1,.8-1.8,1.8-1.8s1.8.8,1.8,1.8-.8,1.8-1.8,1.8-1.8-.8-1.8-1.8Z"/><path class="cls-11" d="M53.7,65.9c0-1,.8-1.8,1.8-1.8s1.8.8,1.8,1.8-.8,1.8-1.8,1.8-1.8-.8-1.8-1.8Z"/><path class="cls-11" d="M48,60.2c0-1,.8-1.8,1.8-1.8s1.8.8,1.8,1.8-.8,1.8-1.8,1.8-1.8-.8-1.8-1.8Z"/><circle class="cls-13" cx="32.9" cy="27.8" r="2.5"/><path class="cls-2" d="M25.7,27.8c0-4,3.2-7.2,7.2-7.2s7.2,3.2,7.2,7.2-3.2,7.2-7.2,7.2-7.2-3.2-7.2-7.2Z"/><circle class="cls-11" cx="39.1" cy="48.1" r="2.5"/><path class="cls-2" d="M31.9,48.1c0-4,3.2-7.2,7.2-7.2s7.2,3.2,7.2,7.2-3.2,7.2-7.2,7.2-7.2-3.2-7.2-7.2Z"/><circle class="cls-13" cx="21.2" cy="73.4" r="2.5"/><circle class="cls-2" cx="21.2" cy="73.4" r="7.2"/><circle class="cls-11" cx="64.2" cy="155.8" r="2.5"/><path class="cls-2" d="M57,155.8c0-4,3.2-7.2,7.2-7.2s7.2,3.2,7.2,7.2-3.2,7.2-7.2,7.2-7.2-3.2-7.2-7.2Z"/><circle class="cls-13" cx="21.2" cy="190.8" r="2.5"/><path class="cls-2" d="M14,190.8c0-4,3.2-7.2,7.2-7.2s7.2,3.2,7.2,7.2-3.2,7.2-7.2,7.2-7.2-3.2-7.2-7.2Z"/><circle class="cls-11" cx="62.8" cy="193.7" r="2.5"/><circle class="cls-2" cx="62.8" cy="193.7" r="7.2"/><circle class="cls-11" cx="60.9" cy="214" r="2.5"/><circle class="cls-11" cx="68.4" cy="96.6" r="2.5"/><circle class="cls-2" cx="45.6" cy="83.3" r="3.6"/><circle class="cls-2" cx="41.7" cy="205.4" r="3.6"/><path class="cls-7" d="M33.9,9.5c0-2.2,1.8-4,4-4s4,1.8,4,4-1.8,4-4,4-4-1.8-4-4Z"/><circle class="cls-13" cx="37.9" cy="9.5" r="1.7"/><circle class="cls-7" cx="25.7" cy="9.5" r="4"/><circle class="cls-11" cx="25.7" cy="9.5" r="1.7"/><path class="cls-7" d="M49.4,12.4c0-2.2,1.8-4,4-4s4,1.8,4,4-1.8,4-4,4-4-1.8-4-4Z"/><path class="cls-11" d="M51.8,12.4c0-.9.8-1.7,1.7-1.7s1.7.8,1.7,1.7-.8,1.7-1.7,1.7-1.7-.8-1.7-1.7Z"/><circle class="cls-7" cx="68.6" cy="41.3" r="4"/><circle class="cls-11" cx="68.6" cy="41.3" r="1.7"/><path class="cls-7" d="M27.9,62c0-2.2,1.8-4,4-4s4,1.8,4,4-1.8,4-4,4-4-1.8-4-4Z"/><path class="cls-11" d="M30.2,62c0-.9.8-1.7,1.7-1.7s1.7.8,1.7,1.7-.8,1.7-1.7,1.7-1.7-.8-1.7-1.7Z"/><path class="cls-7" d="M24.9,106.8c0-2.2,1.8-4,4-4s4,1.8,4,4-1.8,4-4,4-4-1.8-4-4Z"/><path class="cls-11" d="M27.2,106.8c0-.9.8-1.7,1.7-1.7s1.7.8,1.7,1.7-.8,1.7-1.7,1.7-1.7-.8-1.7-1.7Z"/><path class="cls-7" d="M45,126c0-2.2,1.8-4,4-4s4,1.8,4,4-1.8,4-4,4-4-1.8-4-4Z"/><path class="cls-11" d="M47.3,126c0-.9.8-1.7,1.7-1.7s1.7.8,1.7,1.7-.8,1.7-1.7,1.7-1.7-.8-1.7-1.7Z"/><circle class="cls-7" cx="70.1" cy="130.7" r="4"/><circle class="cls-13" cx="70.1" cy="130.7" r="1.7"/><circle class="cls-7" cx="15.5" cy="141.7" r="4"/><circle class="cls-11" cx="15.5" cy="141.7" r="1.7"/><circle class="cls-7" cx="74.1" cy="146.3" r="4"/><circle class="cls-11" cx="74.1" cy="146.3" r="1.7"/><circle class="cls-7" cx="105.2" cy="163" r="4"/><circle class="cls-13" cx="105.2" cy="163" r="1.7"/><path class="cls-7" d="M45,190.8c0-2.2,1.8-4,4-4s4,1.8,4,4-1.8,4-4,4-4-1.8-4-4Z"/><circle class="cls-11" cx="49" cy="190.8" r="1.7"/><circle class="cls-7" cx="77" cy="193.7" r="4"/><circle class="cls-11" cx="77" cy="193.7" r="1.7"/></g><g class="cls-10"><polyline class="cls-4" points="-3.7 343.7 9.5 343.7 20.8 332.4"/><polyline class="cls-4" points=".3 362.3 38.7 324 38.7 309.8 43.1 305.4 51.8 305.4 60.3 296.9 72.8 296.9 77.4 301.5 91.6 301.5 97.9 295.2 112.8 295.2"/><polyline class="cls-4" points="-1.8 317.4 6.4 325.6 11.4 325.6"/><polyline class="cls-4" points="18.2 362.3 37.2 343.3 44.3 343.3 55.8 331.7 55.8 317.4 63 310.2 97.9 310.2 102.1 306"/><polyline class="cls-4" points="44.5 362.3 54.4 352.4 54.4 347.7 65.6 336.5 65.6 327.7 72.8 320.5"/><polyline class="cls-4" points="80.1 362.3 80.1 330.8 87.5 323.4"/><polyline class="cls-4" points="92.1 362.3 92.1 353.4 100.5 344.9 100.5 326.8 108.5 318.8"/><path class="cls-4" d="M119.3,362.3v-41.8l6.2-6.2v-20.5l9.4-9.4h21.1"/><polyline class="cls-4" points="136.1 363.2 136.1 345.1 129 338.1"/><polyline class="cls-4" points="161.5 363.2 161.5 351.7 155 345.3 155 324.7 159.5 320.1"/><polyline class="cls-4" points="172.3 363.2 172.3 348 165.2 340.8 165.2 308.7 172.5 301.3"/><polyline class="cls-4" points="206.4 363.2 177 333.8 177 321.5 182.5 316 182.5 295.2"/><polyline class="cls-4" points="218.9 363.2 218.9 335.3 214.1 330.5"/><path class="cls-4" d="M245.9,363.2c-.5-.5-15.5-15.5-15.5-15.5v-23.1l-14.7-14.7"/><polyline class="cls-4" points="298.4 360.9 289.1 351.6 289.1 316.2 282.7 309.8 266.9 309.8 255.5 298.4 222.6 298.4"/><polyline class="cls-4" points="259.3 363.2 259.3 344.4 266.5 337.3 266.5 324.7"/><polyline class="cls-4" points="304.5 360.9 304.5 316.4 312.6 308.3 312.6 292.4 297.4 292.4 289.1 284.1"/><polyline class="cls-4" points="317.7 360.9 317.7 336.6 328.1 326.2 328.1 282.8 338.9 272 338.9 260 327.6 248.7 290.9 248.7 278.5 236.3"/><polyline class="cls-4" points="329.9 360.9 340.3 350.5 340.3 327.3 350.3 317.3 350.3 284.1 357.1 277.3 357.1 243.5 342.9 229.3"/><path class="cls-11" d="M203.9,323.1c0-1,.8-1.8,1.8-1.8s1.8.8,1.8,1.8-.8,1.8-1.8,1.8-1.8-.8-1.8-1.8Z"/><path class="cls-11" d="M198.4,317.5c0-1,.8-1.8,1.8-1.8s1.8.8,1.8,1.8-.8,1.8-1.8,1.8-1.8-.8-1.8-1.8Z"/><path class="cls-11" d="M192.7,311.9c0-1,.8-1.8,1.8-1.8s1.8.8,1.8,1.8-.8,1.8-1.8,1.8-1.8-.8-1.8-1.8Z"/><path class="cls-13" d="M32.4,302.3c0-1,.8-1.8,1.8-1.8s1.8.8,1.8,1.8-.8,1.8-1.8,1.8-1.8-.8-1.8-1.8Z"/><path class="cls-11" d="M26.9,296.8c0-1,.8-1.8,1.8-1.8s1.8.8,1.8,1.8-.8,1.8-1.8,1.8-1.8-.8-1.8-1.8Z"/><path class="cls-11" d="M21.2,291.1c0-1,.8-1.8,1.8-1.8s1.8.8,1.8,1.8-.8,1.8-1.8,1.8-1.8-.8-1.8-1.8Z"/><path class="cls-11" d="M274.1,300.6c0-1,.8-1.8,1.8-1.8s1.8.8,1.8,1.8-.8,1.8-1.8,1.8-1.8-.8-1.8-1.8Z"/><path class="cls-11" d="M268.6,295.1c0-1,.8-1.8,1.8-1.8s1.8.8,1.8,1.8-.8,1.8-1.8,1.8-1.8-.8-1.8-1.8Z"/><path class="cls-11" d="M262.9,289.4c0-1,.8-1.8,1.8-1.8s1.8.8,1.8,1.8-.8,1.8-1.8,1.8-1.8-.8-1.8-1.8Z"/><path class="cls-11" d="M359,345.8c0-1,.8-1.8,1.8-1.8s1.8.8,1.8,1.8-.8,1.8-1.8,1.8-1.8-.8-1.8-1.8Z"/><path class="cls-11" d="M353.5,340.2c0-1,.8-1.8,1.8-1.8s1.8.8,1.8,1.8-.8,1.8-1.8,1.8-1.8-.8-1.8-1.8Z"/><path class="cls-11" d="M347.9,334.6c0-1,.8-1.8,1.8-1.8s1.8.8,1.8,1.8-.8,1.8-1.8,1.8-1.8-.8-1.8-1.8Z"/><path class="cls-11" d="M323.1,275.1c0-1,.8-1.8,1.8-1.8s1.8.8,1.8,1.8-.8,1.8-1.8,1.8-1.8-.8-1.8-1.8Z"/><path class="cls-11" d="M317.6,269.6c0-1,.8-1.8,1.8-1.8s1.8.8,1.8,1.8-.8,1.8-1.8,1.8-1.8-.8-1.8-1.8Z"/><path class="cls-11" d="M311.9,263.9c0-1,.8-1.8,1.8-1.8s1.8.8,1.8,1.8-.8,1.8-1.8,1.8-1.8-.8-1.8-1.8Z"/><path class="cls-11" d="M292.9,275.2c0-1,.8-1.8,1.8-1.8s1.8.8,1.8,1.8-.8,1.8-1.8,1.8-1.8-.8-1.8-1.8Z"/><path class="cls-11" d="M287.4,269.7c0-1,.8-1.8,1.8-1.8s1.8.8,1.8,1.8-.8,1.8-1.8,1.8-1.8-.8-1.8-1.8Z"/><path class="cls-11" d="M281.7,264c0-1,.8-1.8,1.8-1.8s1.8.8,1.8,1.8-.8,1.8-1.8,1.8-1.8-.8-1.8-1.8Z"/><path class="cls-11" d="M129.1,277c0-1,.8-1.8,1.8-1.8s1.8.8,1.8,1.8-.8,1.8-1.8,1.8-1.8-.8-1.8-1.8Z"/><path class="cls-11" d="M123.6,271.5c0-1,.8-1.8,1.8-1.8s1.8.8,1.8,1.8-.8,1.8-1.8,1.8-1.8-.8-1.8-1.8Z"/><path class="cls-11" d="M118,265.8c0-1,.8-1.8,1.8-1.8s1.8.8,1.8,1.8-.8,1.8-1.8,1.8-1.8-.8-1.8-1.8Z"/><path class="cls-11" d="M256,329c0-1,.8-1.8,1.8-1.8s1.8.8,1.8,1.8-.8,1.8-1.8,1.8-1.8-.8-1.8-1.8Z"/><path class="cls-11" d="M250.4,323.4c0-1,.8-1.8,1.8-1.8s1.8.8,1.8,1.8-.8,1.8-1.8,1.8-1.8-.8-1.8-1.8Z"/><path class="cls-11" d="M244.8,317.8c0-1,.8-1.8,1.8-1.8s1.8.8,1.8,1.8-.8,1.8-1.8,1.8-1.8-.8-1.8-1.8Z"/><circle class="cls-13" cx="38.5" cy="324" r="2.5"/><circle class="cls-2" cx="38.5" cy="324" r="7.2"/><circle class="cls-11" cx="80.1" cy="331.2" r="2.5"/><path class="cls-2" d="M72.9,331.2c0-4,3.2-7.2,7.2-7.2s7.2,3.2,7.2,7.2-3.2,7.2-7.2,7.2-7.2-3.2-7.2-7.2Z"/><circle class="cls-11" cx="125.3" cy="294.1" r="2.5"/><path class="cls-2" d="M118.1,294.1c0-4,3.2-7.2,7.2-7.2s7.2,3.2,7.2,7.2-3.2,7.2-7.2,7.2-7.2-3.2-7.2-7.2Z"/><circle class="cls-11" cx="136.1" cy="345.3" r="2.5"/><circle class="cls-2" cx="136.1" cy="345.3" r="7.2"/><circle class="cls-11" cx="177" cy="333.7" r="2.5"/><path class="cls-2" d="M169.8,333.7c0-4,3.2-7.2,7.2-7.2s7.2,3.2,7.2,7.2-3.2,7.2-7.2,7.2-7.2-3.2-7.2-7.2Z"/><circle class="cls-11" cx="229.8" cy="324.7" r="2.5"/><path class="cls-2" d="M222.6,324.7c0-4,3.2-7.2,7.2-7.2s7.2,3.2,7.2,7.2-3.2,7.2-7.2,7.2-7.2-3.2-7.2-7.2Z"/><circle class="cls-11" cx="259.3" cy="344.5" r="2.5"/><path class="cls-2" d="M252.1,344.5c0-4,3.2-7.2,7.2-7.2s7.2,3.2,7.2,7.2-3.2,7.2-7.2,7.2-7.2-3.2-7.2-7.2Z"/><circle class="cls-11" cx="304.7" cy="316.5" r="2.5"/><path class="cls-2" d="M297.5,316.5c0-4,3.2-7.2,7.2-7.2s7.2,3.2,7.2,7.2-3.2,7.2-7.2,7.2-7.2-3.2-7.2-7.2Z"/><circle class="cls-11" cx="350.4" cy="284.1" r="2.5"/><path class="cls-2" d="M343.2,284.1c0-4,3.2-7.2,7.2-7.2s7.2,3.2,7.2,7.2-3.2,7.2-7.2,7.2-7.2-3.2-7.2-7.2Z"/><circle class="cls-13" cx="327.4" cy="248.6" r="2.5"/><circle class="cls-2" cx="327.4" cy="248.6" r="7.2"/><circle class="cls-11" cx="203.9" cy="295.2" r="2.5"/><circle class="cls-11" cx="82.6" cy="291" r="2.5"/><path class="cls-2" d="M80.2,310.6c0-2,1.6-3.6,3.6-3.6s3.6,1.6,3.6,3.6-1.6,3.6-3.6,3.6-3.6-1.6-3.6-3.6Z"/><circle class="cls-2" cx="307.3" cy="248.6" r="3.6"/><path class="cls-7" d="M10.1,325.6c0-2.2,1.8-4,4-4s4,1.8,4,4-1.8,4-4,4-4-1.8-4-4Z"/><path class="cls-11" d="M12.5,325.6c0-.9.8-1.7,1.7-1.7s1.7.8,1.7,1.7-.8,1.7-1.7,1.7-1.7-.8-1.7-1.7Z"/><path class="cls-7" d="M99.1,305.4c0-2.2,1.8-4,4-4s4,1.8,4,4-1.8,4-4,4-4-1.8-4-4Z"/><path class="cls-13" d="M101.4,305.4c0-.9.8-1.7,1.7-1.7s1.7.8,1.7,1.7-.8,1.7-1.7,1.7-1.7-.8-1.7-1.7Z"/><path class="cls-7" d="M68.8,319.3c0-2.2,1.8-4,4-4s4,1.8,4,4-1.8,4-4,4-4-1.8-4-4Z"/><path class="cls-11" d="M71.2,319.3c0-.9.8-1.7,1.7-1.7s1.7.8,1.7,1.7-.8,1.7-1.7,1.7-1.7-.8-1.7-1.7Z"/><path class="cls-7" d="M85.8,321c0-2.2,1.8-4,4-4s4,1.8,4,4-1.8,4-4,4-4-1.8-4-4Z"/><path class="cls-11" d="M88.2,321c0-.9.8-1.7,1.7-1.7s1.7.8,1.7,1.7-.8,1.7-1.7,1.7-1.7-.8-1.7-1.7Z"/><path class="cls-7" d="M104.8,318.8c0-2.2,1.8-4,4-4s4,1.8,4,4-1.8,4-4,4-4-1.8-4-4Z"/><path class="cls-11" d="M107.2,318.8c0-.9.8-1.7,1.7-1.7s1.7.8,1.7,1.7-.8,1.7-1.7,1.7-1.7-.8-1.7-1.7Z"/><path class="cls-7" d="M106.5,295c0-2.2,1.8-4,4-4s4,1.8,4,4-1.8,4-4,4-4-1.8-4-4Z"/><path class="cls-13" d="M108.8,295c0-.9.8-1.7,1.7-1.7s1.7.8,1.7,1.7-.8,1.7-1.7,1.7-1.7-.8-1.7-1.7Z"/><circle class="cls-7" cx="156.8" cy="284.5" r="4"/><circle class="cls-11" cx="156.8" cy="284.5" r="1.7"/><path class="cls-7" d="M122.8,335.9c0-2.2,1.8-4,4-4s4,1.8,4,4-1.8,4-4,4-4-1.8-4-4Z"/><circle class="cls-11" cx="126.8" cy="335.9" r="1.7"/><circle class="cls-7" cx="172.5" cy="301.3" r="4"/><circle class="cls-13" cx="172.5" cy="301.3" r="1.7"/><path class="cls-7" d="M178.6,293.3c0-2.2,1.8-4,4-4s4,1.8,4,4-1.8,4-4,4-4-1.8-4-4Z"/><circle class="cls-11" cx="182.7" cy="293.3" r="1.7"/><path class="cls-7" d="M155.1,320.5c0-2.2,1.8-4,4-4s4,1.8,4,4-1.8,4-4,4-4-1.8-4-4Z"/><circle class="cls-11" cx="159.2" cy="320.5" r="1.7"/><path class="cls-7" d="M211.6,310.1c0-2.2,1.8-4,4-4s4,1.8,4,4-1.8,4-4,4-4-1.8-4-4Z"/><path class="cls-11" d="M214,310.1c0-.9.8-1.7,1.7-1.7s1.7.8,1.7,1.7-.8,1.7-1.7,1.7-1.7-.8-1.7-1.7Z"/><path class="cls-7" d="M209.3,330.5c0-2.2,1.8-4,4-4s4,1.8,4,4-1.8,4-4,4-4-1.8-4-4Z"/><path class="cls-13" d="M211.6,330.5c0-.9.8-1.7,1.7-1.7s1.7.8,1.7,1.7-.8,1.7-1.7,1.7-1.7-.8-1.7-1.7Z"/><path class="cls-7" d="M218.6,298.6c0-2.2,1.8-4,4-4s4,1.8,4,4-1.8,4-4,4-4-1.8-4-4Z"/><circle class="cls-13" cx="222.6" cy="298.6" r="1.7"/><path class="cls-7" d="M262.4,324.5c0-2.2,1.8-4,4-4s4,1.8,4,4-1.8,4-4,4-4-1.8-4-4Z"/><circle class="cls-11" cx="266.4" cy="324.5" r="1.7"/><circle class="cls-7" cx="289.1" cy="283.8" r="4"/><circle class="cls-11" cx="289.1" cy="283.8" r="1.7"/><path class="cls-7" d="M274.5,236.3c0-2.2,1.8-4,4-4s4,1.8,4,4-1.8,4-4,4-4-1.8-4-4Z"/><path class="cls-11" d="M276.8,236.3c0-.9.8-1.7,1.7-1.7s1.7.8,1.7,1.7-.8,1.7-1.7,1.7-1.7-.8-1.7-1.7Z"/><path class="cls-7" d="M339,229.3c0-2.2,1.8-4,4-4s4,1.8,4,4-1.8,4-4,4-4-1.8-4-4Z"/><path class="cls-13" d="M341.3,229.3c0-.9.8-1.7,1.7-1.7s1.7.8,1.7,1.7-.8,1.7-1.7,1.7-1.7-.8-1.7-1.7Z"/><path class="cls-7" d="M17.2,332.3c0-2.2,1.8-4,4-4s4,1.8,4,4-1.8,4-4,4-4-1.8-4-4Z"/><path class="cls-11" d="M19.5,332.3c0-.9.8-1.7,1.7-1.7s1.7.8,1.7,1.7-.8,1.7-1.7,1.7-1.7-.8-1.7-1.7Z"/></g><g class="cls-9"><polyline class="cls-3" points="439.6 360.7 439.6 349.8 445 344.4"/><polyline class="cls-3" points="458 360.7 458 338.7 439.7 320.4 426.6 320.4 426.6 331.5 432 336.9"/><polyline class="cls-3" points="474.7 362.5 474.7 353.6 469.4 348.3 469.4 333.6 439.3 303.4 421.6 303.4 415.7 309.3 403.5 309.3"/><path class="cls-3" d="M485.3,362.5c-.3,0,0-29.5,0-29.5l-10.3-10.3v-14.1l-20.5-20.5v-9.9l-8.8-8.8"/><polyline class="cls-3" points="414.6 362.5 414.6 334.6 406.3 326.3"/><polyline class="cls-3" points="446.1 226.1 438 234.2 438 247.3 445.8 255 461.6 255 485.1 278.5 485.1 293.7 501.2 309.8"/><polyline class="cls-3" points="501.2 278.4 470.3 247.5 470.3 228.3 454.6 212.6 435 212.6 424.8 202.4"/><path class="cls-3" d="M503.6,258.4s-20.2-16.7-20.2-20.2v-19.3l-20.5-20.5v-7.7"/><path class="cls-11" d="M408.6,300.7c0-1,.8-1.8,1.8-1.8s1.8.8,1.8,1.8-.8,1.8-1.8,1.8-1.8-.8-1.8-1.8Z"/><path class="cls-11" d="M403.1,295.2c0-1,.8-1.8,1.8-1.8s1.8.8,1.8,1.8-.8,1.8-1.8,1.8-1.8-.8-1.8-1.8Z"/><path class="cls-11" d="M397.5,289.5c0-1,.8-1.8,1.8-1.8s1.8.8,1.8,1.8-.8,1.8-1.8,1.8-1.8-.8-1.8-1.8Z"/><path class="cls-11" d="M440.4,205.2c0-1,.8-1.8,1.8-1.8s1.8.8,1.8,1.8-.8,1.8-1.8,1.8-1.8-.8-1.8-1.8Z"/><path class="cls-11" d="M434.9,199.7c0-1,.8-1.8,1.8-1.8s1.8.8,1.8,1.8-.8,1.8-1.8,1.8-1.8-.8-1.8-1.8Z"/><path class="cls-11" d="M429.2,194c0-1,.8-1.8,1.8-1.8s1.8.8,1.8,1.8-.8,1.8-1.8,1.8-1.8-.8-1.8-1.8Z"/><path class="cls-11" d="M472.6,295c0-1,.8-1.8,1.8-1.8s1.8.8,1.8,1.8-.8,1.8-1.8,1.8-1.8-.8-1.8-1.8Z"/><path class="cls-11" d="M467.1,289.5c0-1,.8-1.8,1.8-1.8s1.8.8,1.8,1.8-.8,1.8-1.8,1.8-1.8-.8-1.8-1.8Z"/><path class="cls-11" d="M461.4,283.8c0-1,.8-1.8,1.8-1.8s1.8.8,1.8,1.8-.8,1.8-1.8,1.8-1.8-.8-1.8-1.8Z"/><path class="cls-11" d="M404.8,344.1c0-1,.8-1.8,1.8-1.8s1.8.8,1.8,1.8-.8,1.8-1.8,1.8-1.8-.8-1.8-1.8Z"/><path class="cls-11" d="M399.3,338.6c0-1,.8-1.8,1.8-1.8s1.8.8,1.8,1.8-.8,1.8-1.8,1.8-1.8-.8-1.8-1.8Z"/><path class="cls-11" d="M393.6,332.9c0-1,.8-1.8,1.8-1.8s1.8.8,1.8,1.8-.8,1.8-1.8,1.8-1.8-.8-1.8-1.8Z"/><circle class="cls-11" cx="439.1" cy="303.4" r="2.5"/><path class="cls-2" d="M431.9,303.4c0-4,3.2-7.2,7.2-7.2s7.2,3.2,7.2,7.2-3.2,7.2-7.2,7.2-7.2-3.2-7.2-7.2Z"/><circle class="cls-11" cx="484.7" cy="278.4" r="2.5"/><path class="cls-2" d="M477.5,278.4c0-4,3.2-7.2,7.2-7.2s7.2,3.2,7.2,7.2-3.2,7.2-7.2,7.2-7.2-3.2-7.2-7.2Z"/><circle class="cls-13" cx="438" cy="247" r="2.5"/><path class="cls-2" d="M430.8,247c0-4,3.2-7.2,7.2-7.2s7.2,3.2,7.2,7.2-3.2,7.2-7.2,7.2-7.2-3.2-7.2-7.2Z"/><circle class="cls-13" cx="483.3" cy="218.9" r="2.5"/><path class="cls-2" d="M476.1,218.9c0-4,3.2-7.2,7.2-7.2s7.2,3.2,7.2,7.2-3.2,7.2-7.2,7.2-7.2-3.2-7.2-7.2Z"/><circle class="cls-13" cx="485.3" cy="333" r="2.5"/><circle class="cls-2" cx="485.3" cy="333" r="7.2"/><circle class="cls-11" cx="478.1" cy="197.4" r="2.5"/><path class="cls-2" d="M466,263.9c0-2,1.6-3.6,3.6-3.6s3.6,1.6,3.6,3.6-1.6,3.6-3.6,3.6-3.6-1.6-3.6-3.6Z"/><circle class="cls-7" cx="406.3" cy="326.3" r="4"/><circle class="cls-11" cx="406.3" cy="326.3" r="1.7"/><path class="cls-7" d="M398.3,309.8c0-2.2,1.8-4,4-4s4,1.8,4,4-1.8,4-4,4-4-1.8-4-4Z"/><path class="cls-11" d="M400.6,309.8c0-.9.8-1.7,1.7-1.7s1.7.8,1.7,1.7-.8,1.7-1.7,1.7-1.7-.8-1.7-1.7Z"/><circle class="cls-7" cx="432.5" cy="336.8" r="4"/><circle class="cls-11" cx="432.5" cy="336.8" r="1.7"/><path class="cls-7" d="M441.2,344c0-2.2,1.8-4,4-4s4,1.8,4,4-1.8,4-4,4-4-1.8-4-4Z"/><path class="cls-11" d="M443.5,344c0-.9.8-1.7,1.7-1.7s1.7.8,1.7,1.7-.8,1.7-1.7,1.7-1.7-.8-1.7-1.7Z"/><circle class="cls-7" cx="445.8" cy="269.3" r="4"/><circle class="cls-11" cx="445.8" cy="269.3" r="1.7"/><path class="cls-7" d="M443.5,225.5c0-2.2,1.8-4,4-4s4,1.8,4,4-1.8,4-4,4-4-1.8-4-4Z"/><path class="cls-11" d="M445.8,225.5c0-.9.8-1.7,1.7-1.7s1.7.8,1.7,1.7-.8,1.7-1.7,1.7-1.7-.8-1.7-1.7Z"/><circle class="cls-7" cx="423.7" cy="201.5" r="4"/><circle class="cls-13" cx="423.7" cy="201.5" r="1.7"/><path class="cls-7" d="M459,189.1c0-2.2,1.8-4,4-4s4,1.8,4,4-1.8,4-4,4-4-1.8-4-4Z"/><path class="cls-11" d="M461.3,189.1c0-.9.8-1.7,1.7-1.7s1.7.8,1.7,1.7-.8,1.7-1.7,1.7-1.7-.8-1.7-1.7Z"/></g></g></svg>