<?xml version="1.0" encoding="UTF-8"?>
<svg id="a" xmlns="http://www.w3.org/2000/svg" version="1.1" viewBox="0 0 1080.29 805.74">
  <!-- Generator: Adobe Illustrator 29.6.1, SVG Export Plug-In . SVG Version: 2.1.1 Build 9)  -->
  <defs>
    <style>
      .st0 {
        fill: #00324d;
      }

      .st1 {
        fill: #036eb7;
      }
    </style>
  </defs>
  <path class="st1" d="M520.68,17.67c35.63-8.62,73.35-8.46,108.97.32,27.81,6.93,54.32,19.18,77.54,35.95,37.32,26.76,66.25,64.96,81.73,108.17h-77.86c-25.55-22.57-51.1-45.06-76.65-67.54-3.22-2.66-6.13-5.64-9.43-8.14-21.68-.24-43.36,0-65.04-.08-3.95-11.93-12.33-22.49-23.37-28.69-10.8-6.21-24.42-7.66-36.03-2.82-12.33,4.84-21.36,16.28-24.5,29.02-5.8,22.17,5.4,47.39,25.71,58.03,10.8,5.88,24.34,7.01,35.63,2.02,11.93-4.92,20.55-16.12,23.78-28.45h60.93c28.37,24.34,56.82,48.52,85.19,72.86,42.96-1.05,86-2.26,128.96-3.14,1.69-5.48,4.84-10.64,9.51-14.02,6.53-5,15.88-5.96,23.29-2.42,8.79,3.95,14.59,12.98,15.72,22.49,1.21,8.79-1.77,18.22-8.3,24.34-6.05,5.72-15.31,7.9-23.21,5-5.32-1.69-9.59-5.48-12.9-9.83-13.22.56-26.52,1.05-39.74,1.29,2.18,18.46,2.18,37.24-.24,55.69-23.86,1.53-47.72,2.98-71.57,4.67-16.44,29.34-33.05,58.6-49.57,87.93-.97,1.37-1.45,3.63-3.39,3.95-20.88,5.24-41.75,10.56-62.55,15.88-5.88-8.79-14.59-15.8-24.74-18.7-10.56-3.06-22.41-1.29-31.68,4.59-11.36,7.09-18.86,19.51-21.12,32.56-1.93,11.93,0,24.58,6.13,35.06,6.13,10.72,16.6,19.18,28.77,21.76,10.72,2.34,22.25-.16,31.11-6.61,10.56-7.42,17.33-19.59,19.26-32.24,24.99-7.33,49.89-14.67,74.88-22,17.49-30.39,34.74-60.77,52.23-91.16,25.07-5.4,50.21-10.64,75.36-16.12,1.69-6.53,5.48-12.73,11.28-16.36,6.45-4.19,14.99-4.67,22-1.37,11.61,5.32,17.65,19.18,15.31,31.51-1.53,9.83-8.95,18.94-18.94,21.04-7.74,1.77-16.04-.97-21.68-6.53-15.8,4.19-31.6,8.38-47.31,12.57-17.57,41.75-48.04,78.02-86.16,102.52-20.47,13.3-43.04,23.21-66.66,29.26-34.34,8.87-70.77,9.59-105.51,2.1-30.14-6.45-58.84-19.26-83.9-37.16-25.79-18.46-47.72-42.32-63.84-69.64,71.01-11.69,142.1-23.37,213.19-35.06,6.45,10.08,16.85,17.81,28.77,19.91,9.75,1.85,20.31-.73,28.21-6.69,7.9-5.8,13.14-14.75,15.23-24.18,3.14-14.02-.64-29.34-9.59-40.46-6.93-8.79-17.17-14.99-28.37-16.2-9.75-1.13-19.91,2.02-27.4,8.38-7.74,6.45-12.57,15.96-14.11,25.79-83.9,11.04-167.89,22-251.8,33.05-4.11,13.3-13.54,24.66-25.55,31.68-21.92,13.14-51.83,11.28-71.73-4.84-10.16-8.06-17.49-19.67-19.83-32.48-2.26-11.61-.32-24.02,5.32-34.42,6.85-12.82,18.94-22.73,32.72-27.4,14.59-5.08,31.03-4.67,45.3,1.13,11.2,4.51,20.96,12.41,27.57,22.57,7.58-.73,15.15-1.37,22.81-1.93-2.66-19.59-3.3-39.41-1.21-59.08,45.3-1.93,90.59-3.95,135.81-5.96,26.52-1.21,53.03-2.18,79.55-3.63,4.92,10.8,13.46,20.23,24.58,24.74,10.4,4.43,22.73,3.87,32.56-1.85,10.96-6.13,17.97-17.89,19.59-30.14,1.69-12.17-1.53-24.91-8.54-34.9-5.96-8.54-14.91-14.99-25.07-17.49-10.16-2.58-21.36-.48-29.82,5.56-8.14,5.72-13.62,14.67-15.96,24.26-115.42,3.3-230.84,6.53-346.26,9.75-5.4,14.19-16.93,25.55-30.63,31.68-22.41,10.24-50.7,6.61-69.24-9.83-9.75-8.46-16.52-20.39-18.14-33.29-2.02-13.78,2.18-28.21,10.8-39.17,9.51-12.25,23.94-20.23,39.17-22.65,12.17-1.85,24.91-.48,36.27,4.35,11.12,4.67,20.79,12.65,27.24,22.89h159.99c15.96-32.48,39.66-61.1,68.67-82.7,24.42-18.3,52.63-31.51,82.29-38.69l.16-.24ZM148.88,140.18c-8.95,2.18-17.01,8.54-20.39,17.25-2.9,7.17-2.1,15.56,1.77,22.17,4.19,6.93,11.28,11.93,19.18,13.62,11.77,2.82,25.23-1.61,32.4-11.61,5.56-7.58,6.53-18.22,2.1-26.52-6.29-12.41-21.76-18.46-34.98-14.91h-.08ZM856.47,181.21c-5.24,1.61-8.54,7.09-8.62,12.41-.24,7.17,5.56,14.43,13.06,14.11,7.82-.4,12.9-9.19,10.88-16.44-1.29-6.77-8.46-12.41-15.39-10.08h.08ZM269.05,277.2c-12.57,2.02-23.78,12.9-24.02,26.03-.64,12.09,8.3,23.21,19.59,26.68,12.57,4.43,27.97-.4,35.22-11.77,5.08-7.5,5.64-17.81,1.37-25.79-5.8-11.53-19.67-17.49-32.16-15.23v.08ZM845.02,281.64c-4.92,1.13-8.46,5.56-9.19,10.4-1.53,7.58,4.19,16.28,12.25,16.28,7.74.08,13.14-8.3,11.69-15.48-.81-6.85-7.66-12.98-14.75-11.28v.08Z"/>
  <path class="st1" d="M512.3,76.43c9.83-2.42,20.23,3.39,24.82,12.09,4.35,7.74,4.67,17.81-.16,25.47-3.71,6.05-10.8,9.75-17.89,9.35-8.7-.4-16.52-6.45-20.07-14.27-3.55-7.5-3.39-16.76,1.05-23.86,2.74-4.35,7.17-7.5,12.17-8.7l.08-.08Z"/>
  <path class="st1" d="M595.4,166.78c6.69-1.29,13.78,1.53,18.3,6.61,7.74,8.06,8.87,22.08,1.37,30.71-4.84,5.96-13.54,8.06-20.63,5.32-11.45-4.11-17.49-18.05-13.7-29.34,2.02-6.61,7.66-12.17,14.59-13.3h.08Z"/>
  <path class="st1" d="M618.69,274.71c10.08-2.5,20.47,4.51,23.86,13.86,3.14,7.66,2.1,17.17-3.47,23.45-4.03,4.76-10.56,7.09-16.68,6.13-6.45-.97-12.09-5.24-15.31-10.8-4.84-8.22-4.51-19.59,2.02-26.92,2.5-2.82,5.88-4.84,9.51-5.64l.08-.08Z"/>
  <path class="st1" d="M574.36,384.32c7.01-1.45,14.43,1.37,19.18,6.61,6.61,7.25,8.3,18.38,4.51,27.4-2.74,6.69-8.79,12.17-16.04,13.38-6.37,1.21-13.22-1.13-17.73-5.8-8.14-7.82-9.67-21.36-4.11-31.03,3.06-5.24,8.22-9.43,14.27-10.56h-.08Z"/>
  <path class="st0" d="M606.77,513.52c16.93-1.69,34.58-.48,50.29,6.53,10.88,4.76,19.83,13.62,24.74,24.42,6.21,13.54,8.06,28.61,7.9,43.36,0,10.96-1.53,21.92-5.32,32.24-4.19,11.53-12.25,21.68-22.97,27.73-11.53,6.61-25.07,8.62-38.12,8.95-15.15,0-30.63-2.34-44.09-9.51-9.43-4.84-16.93-13.14-21.6-22.57-6.77-13.54-8.38-29.02-7.9-44.01.48-16.52,3.71-34.01,14.35-47.15,10.32-12.73,26.92-18.3,42.72-19.83v-.16ZM610.72,537.62c-8.22,1.37-16.28,5.8-20.71,13.06-5.96,9.59-6.69,21.28-7.09,32.24,0,9.35.64,18.78,3.55,27.73,2.1,6.29,5.72,12.41,11.36,16.12,8.06,5.48,18.22,6.45,27.65,5.56,8.79-.73,17.65-4.76,22.65-12.33,6.77-9.91,7.9-22.25,8.22-33.93,0-9.99-.73-20.23-4.43-29.58-2.5-6.53-7.09-12.41-13.38-15.64-8.54-4.27-18.54-4.84-27.81-3.3v.08Z"/>
  <path class="st0" d="M44.26,519.97c13.7-6.21,29.02-6.45,43.77-6.37h40.06v25.55h-46.59c-9.43.16-19.42,2.5-26.28,9.27-5.64,5.4-7.58,13.38-8.54,20.88-1.29,11.45-1.05,23.05,1.13,34.34,1.77,8.14,5.08,16.85,12.49,21.28,8.3,4.92,18.3,5.32,27.65,5.24h40.06v25.55h-48.92c-9.75-.24-19.83-.16-29.18-3.3-11.12-3.39-20.79-10.88-26.92-20.79-8.06-12.98-10.32-28.61-10.8-43.6v-6.29c.48-13.62,2.58-27.65,9.11-39.82,5-9.59,12.98-17.65,22.89-22.08l.08.16Z"/>
  <path class="st0" d="M181.6,513.61h35.54c10.88,18.46,21.68,36.91,32.48,55.45,11.45-18.46,22.81-37,34.26-55.45h36.27c-17.57,25.71-35.14,51.34-52.71,76.97-1.13,1.85-3.06,3.55-2.74,5.96v59.32h-30.47v-60.13c.24-2.74-2.02-4.67-3.22-6.85-16.52-25.07-33.13-50.13-49.57-75.28h.16Z"/>
  <path class="st0" d="M402.93,521.42c13.62-7.33,29.5-7.9,44.57-7.82h42.15v25.63h-42.07c-10.4-.24-21.68,1.21-29.74,8.38-5.88,5-8.22,12.73-9.35,20.07-1.61,11.28-1.29,22.73.48,33.93,1.45,7.9,4.03,16.28,10.4,21.68,6.69,5.48,15.72,6.69,24.1,7.01,15.39.08,30.79,0,46.18,0v25.55c-19.91-.16-39.9.32-59.81-.32-13.78-.4-28.05-4.59-37.88-14.59-11.04-10.72-15.72-26.2-17.33-41.11-1.61-16.6-.97-33.85,4.76-49.73,4.27-11.85,12.25-22.73,23.62-28.69h-.08Z"/>
  <path class="st0" d="M757.65,513.61h63.84c12.17,0,24.5.08,36.35,3.14,5.8,1.45,11.36,4.19,15.88,8.3,7.66,6.85,11.69,17.09,11.85,27.24.08,9.91-1.53,20.23-7.17,28.61-4.51,6.77-11.93,11.12-19.51,13.7,5.64,2.18,11.61,4.59,15.64,9.43,5.56,6.77,8.46,15.39,9.27,24.02.89,9.27,1.29,18.7,3.95,27.73h-34.09c-2.02-8.38-2.74-17.01-3.71-25.55-1.05-7.33-3.06-15.15-8.62-20.39-5.8-5.8-14.27-7.33-22.17-7.82-10.32-.48-20.71-.16-31.03-.24v54h-30.47v-142.26.08ZM788.04,539.16v37.24h38.29c5.56,0,11.28.08,16.52-1.85,5.16-2.1,8.3-7.42,8.95-12.73.89-6.29.4-13.7-4.51-18.3-5.24-4.76-12.73-4.35-19.26-4.35h-39.98Z"/>
  <path class="st0" d="M982.77,518.6c8.95-4.35,19.18-4.76,29.02-5h51.18v25.63h-41.51c-6.45.16-13.06.32-19.34,1.93-7.9,2.02-14.02,8.62-16.52,16.2-1.45,4.92-1.77,10.08-2.26,15.15h79.63v25.39h-79.71c.81,7.42,2.34,15.15,6.93,21.28,3.3,4.51,8.46,7.25,13.78,8.7,9.59,2.74,19.67,2.5,29.58,2.42h29.5v25.63h-39.09c-10.8-.24-21.76-.48-32.32-2.74-10.88-2.34-20.96-8.46-27.65-17.33-10.32-13.06-14.43-29.98-14.99-46.35-.73-16.04,1.53-32.64,9.51-46.83,5.72-9.99,13.86-18.86,24.34-24.02l-.08-.08Z"/>
  <path class="st0" d="M858.8,696.97h10.88v5.24h52.15v-5.24h10.88v5.24h15.56v11.04h-15.56v8.22h-10.88v-8.22h-52.15v8.22h-10.88v-8.22h-15.48v-11.12h15.48v-5.24.08Z"/>
  <path class="st0" d="M190.39,697.78h10.64v66.25h-10.64v-66.33.08Z"/>
  <path class="st0" d="M330.15,697.13h11.04c-.16,2.1-.32,4.11-.48,6.21h83.26v10.64h-41.27v17.33h39.49v10.64h-39.49v23.78h41.27v10.64h-41.27v17.73h-10.64v-17.73h-53.76v-10.64h7.9c0-6.93-.08-13.94,0-20.88.16-7.01,6.21-13.78,13.46-13.54h32.4v-17.33h-34.09c-2.5,5.48-5.64,10.96-10.88,14.19-2.74,1.77-5.72,2.82-8.79,3.79v-11.85c2.9-1.77,5.88-3.87,7.5-6.93,2.58-5,3.55-10.64,4.59-16.12l-.24.08ZM338.13,744.36c-1.29,1.77-1.37,4.03-1.45,6.13v15.31h35.3v-23.78h-26.76c-2.5,0-5.4.24-7.09,2.34Z"/>
  <path class="st0" d="M540.35,697.62h10.88v9.83c9.35,0,18.7-.08,28.05,0,5.08.08,10.56,1.13,14.35,4.92,3.3,3.14,4.59,7.82,4.43,12.33v41.99c0,5.16-1.45,10.8-5.8,14.11-4.84,4.03-11.45,3.63-17.41,3.63h-23.54v9.83c-3.63,0-7.25,0-10.88-.08v-9.75h-26.03c-5.24-.16-11.2-.24-15.31-3.95-4.11-3.63-5.16-9.35-5.16-14.59v-40.38c0-4.76,1.13-9.99,4.76-13.38,3.47-3.47,8.54-4.67,13.38-4.76h28.45v-9.83l-.16.08ZM506.42,720.02c-1.69,1.69-1.61,4.11-1.69,6.37v38.69c.08,2.26-.16,4.84,1.53,6.53,1.53,1.85,4.19,1.93,6.45,1.93h27.65v-54.97h-28.45c-1.93,0-4.11,0-5.56,1.53l.08-.08ZM551.31,718.33v55.21h26.03c2.74,0,5.88,0,7.98-2.1,1.69-1.69,1.85-4.19,1.85-6.45v-38.69c-.08-2.34-.16-5.24-2.34-6.69-2.82-1.61-6.13-1.13-9.19-1.21-8.14.16-16.2-.32-24.34-.16v.08Z"/>
  <path class="st0" d="M679.95,697.78c2.26-.48,4.67-.48,7.01-.4,23.62.08,47.31-.08,70.93.08,7.66-.16,13.78,7.01,13.62,14.43,0,22.81.16,45.7-.08,68.51.16,7.58-7.01,13.54-14.27,13.46h-72.62c-4.51,0-9.27-1.69-12.09-5.4-2.9-3.3-2.9-7.98-2.98-12.09v-63.67c-.08-6.53,3.79-13.62,10.56-14.91h-.08ZM687.12,708.09c-3.22-.16-6.85,1.85-6.85,5.4-.16,19.91,0,39.74-.08,59.64,0,2.82-.32,6.05,1.61,8.3,1.77,1.69,4.35,1.69,6.61,1.77h66.09c3.87.24,6.45-3.3,6.21-6.85.08-19.83,0-39.74,0-59.56-.08-2.34,0-5.16-1.85-6.85-2.1-1.77-5-1.77-7.58-1.85h-64.24.08Z"/>
  <path class="st0" d="M151.7,736.14c1.29-11.61,2.5-23.29,3.87-34.9h10.72c-1.29,12.09-2.58,24.18-3.87,36.27-.56,5.24-2.82,10.4-7.09,13.62-3.22,2.74-7.42,3.71-11.53,4.03v-10.56c1.85-.48,3.87-.81,5.32-2.18,1.77-1.61,2.34-4.03,2.58-6.29h0Z"/>
  <path class="st0" d="M226.74,701.16h10.72c1.21,11.12,2.5,22.17,3.63,33.29.32,2.74.81,5.72,2.82,7.82,1.37,1.37,3.3,1.69,5.08,2.1v10.72c-4.84-.4-9.83-2.02-13.14-5.72-3.22-3.3-4.84-7.82-5.24-12.33-1.29-11.93-2.58-23.86-3.87-35.87Z"/>
  <path class="st0" d="M279.05,703.74c-.4-2.18,1.85-2.66,3.39-1.77v88.42c-1.53.48-3.79.4-3.39-1.85v-84.79Z"/>
  <path class="st0" d="M456.85,701.81c.81-.89,1.85,0,2.74.24v79.96c0,2.66.16,5.32-.16,7.98-.89,1.05-2.1.48-3.22.32-.16-28.29,0-56.58,0-84.87.24-1.13-.48-2.9.73-3.63h-.08Z"/>
  <path class="st0" d="M631.27,702.29c.73-1.37,2.1-.64,3.3-.32-.08,29.1.08,58.19-.08,87.29,0,1.77-2.18,1.29-3.3,1.05-.08-24.02,0-48.04,0-71.98.08-5.32-.24-10.72.16-16.04h-.08Z"/>
  <path class="st0" d="M806.01,703.82c-.48-2.26,1.85-2.74,3.39-1.85-.08,29.1.08,58.19-.08,87.29,0,2.34-4.11,1.61-3.3-.73-.08-28.21,0-56.5,0-84.71h0Z"/>
  <path class="st0" d="M686.88,714.3h66.74v10.88h-27.97v12.73h26.76v10.64h-26.76v17.89h11.28v-9.27h10.88v9.27h5.8v10.64h-66.74v-10.64h28.05v-17.89c-8.79-.16-17.65.24-26.36-.16-.16-3.47,0-7.01,0-10.48h26.36v-12.65h-28.05v-10.96Z"/>
  <path class="st0" d="M899.83,727.6h10.48c.48,11.45.64,22.89,1.21,34.34-.16,1.69,1.13,2.74,2.42,3.47v10.4c-4.11-.48-8.3-1.93-10.72-5.4-2.98-4.11-2.34-9.43-2.58-14.19-.24-9.51-.64-19.1-.73-28.61h-.08Z"/>
  <path class="st0" d="M873.47,727.6h10.64v48.76c-.24,3.55,2.5,6.93,6.21,6.77,11.85.16,23.62,0,35.46,0v10.64h-35.14c-3.22,0-6.53-.16-9.51-1.45-4.76-2.42-7.82-7.5-7.74-12.82v-52.07l.08.16Z"/>
  <path class="st0" d="M929.17,727.6h10.72c1.53,16.36,2.98,32.72,4.76,49,0,2.58,1.61,4.51,3.63,6.05v11.36c-6.93-1.93-13.3-7.42-14.11-14.91-1.85-17.17-3.3-34.42-5-51.58v.08Z"/>
  <path class="st0" d="M851.39,730.02h10.64c-1.93,16.04-3.87,32.08-5.8,48.04-.48,3.63-.73,7.58-3.22,10.56-2.42,3.22-6.53,4.51-10.4,4.84v-10.32c1.21-.89,2.5-1.93,2.58-3.63,2.18-16.52,4.11-32.97,6.13-49.49h.08Z"/>
  <path class="st0" d="M220.93,769.03c4.76-2.58,8.54-6.53,12.09-10.56h12.73c-3.39,5.96-7.66,11.53-13.14,15.72-10.4,8.06-22.97,12.65-35.63,15.64-17.09,4.11-34.74,4.51-52.23,4.92v-11.12c12.73.48,25.47-.32,38.12-2.18,13.22-2.18,26.44-5.72,38.2-12.41h-.16Z"/>
</svg>