<?xml version="1.0" encoding="UTF-8"?><svg id="Objects" xmlns="http://www.w3.org/2000/svg" viewBox="0 0 500 429"><defs><style>.cls-1{fill:#18a2ef;}.cls-2{fill:#19c0fc;}</style></defs><path class="cls-1" d="M436.3,59.3h-187.3c-4.5,0-8.9-1.4-12.6-3.9l-38.2-26.5c-3.7-2.6-8.1-3.9-12.6-3.9h-109.4c-12.2,0-22.1,9.9-22.1,22.1v91.2h404.2v-56.8c0-12.2-9.9-22.1-22.1-22.1Z"/><path class="cls-2" d="M442.2,403.1H70.3c-14.4,0-26.3-11.2-27.2-25.6l-13.6-224.3c-.9-15.6,11.5-28.9,27.2-28.9h399c15.7,0,28.1,13.2,27.2,28.9l-13.6,224.3c-.9,14.4-12.8,25.6-27.2,25.6Z"/></svg>