<?xml version="1.0" encoding="UTF-8"?><svg id="Layer_1" xmlns="http://www.w3.org/2000/svg" viewBox="0 0 1002.8 281.5"><defs><style>.cls-1{fill:#00324d;}.cls-2{fill:#036eb7;}</style></defs><path class="cls-2" d="M198.2,54.3c15.4-3.7,31.7-3.7,47.1.2,12,3,23.5,8.3,33.6,15.5,16.1,11.6,28.7,28.1,35.3,46.8-11.2,0-22.5,0-33.7,0-11-9.7-22.1-19.5-33.2-29.2-1.4-1.1-2.6-2.4-4.1-3.5-9.4,0-18.8,0-28.1,0-1.7-5.2-5.3-9.7-10.1-12.4-4.7-2.7-10.6-3.3-15.6-1.2-5.3,2.1-9.2,7-10.6,12.6-2.5,9.6,2.3,20.5,11.1,25.1,4.7,2.5,10.5,3,15.4.9,5.2-2.1,8.9-7,10.3-12.3,8.8,0,17.6,0,26.4,0,12.3,10.5,24.6,21,36.8,31.5,18.6-.5,37.2-1,55.8-1.4.7-2.4,2.1-4.6,4.1-6.1,2.8-2.2,6.9-2.6,10.1-1.1,3.8,1.7,6.3,5.6,6.8,9.7.5,3.8-.8,7.9-3.6,10.5-2.6,2.5-6.6,3.4-10,2.2-2.3-.7-4.1-2.4-5.6-4.2-5.7.3-11.5.4-17.2.6.9,8,.9,16.1,0,24.1-10.3.7-20.6,1.3-30.9,2-7.1,12.7-14.3,25.3-21.4,38-.4.6-.6,1.6-1.5,1.7-9,2.3-18,4.6-27.1,6.9-2.5-3.8-6.3-6.8-10.7-8.1-4.6-1.3-9.7-.6-13.7,2-4.9,3.1-8.2,8.4-9.1,14.1-.9,5.2,0,10.6,2.7,15.2,2.6,4.6,7.2,8.3,12.5,9.4,4.6,1,9.6,0,13.5-2.9,4.6-3.2,7.5-8.5,8.3-14,10.8-3.2,21.6-6.4,32.4-9.5,7.6-13.1,15-26.3,22.6-39.4,10.9-2.3,21.7-4.6,32.6-7,.7-2.8,2.4-5.5,4.9-7.1,2.8-1.8,6.5-2,9.5-.6,5,2.3,7.6,8.3,6.6,13.6-.7,4.3-3.9,8.2-8.2,9.1-3.4.8-7-.4-9.4-2.8-6.8,1.8-13.7,3.6-20.5,5.4-7.6,18.1-20.8,33.7-37.3,44.4-8.8,5.7-18.6,10-28.8,12.7-14.9,3.8-30.6,4.1-45.6.9-13-2.8-25.5-8.3-36.3-16.1-11.2-8-20.6-18.3-27.6-30.1,30.7-5.1,61.5-10.1,92.2-15.2,2.8,4.4,7.3,7.7,12.4,8.6,4.2.8,8.8-.3,12.2-2.9,3.4-2.5,5.7-6.4,6.6-10.5,1.4-6.1-.3-12.7-4.1-17.5-3-3.8-7.4-6.5-12.3-7-4.2-.5-8.6.9-11.8,3.6-3.4,2.8-5.4,6.9-6.1,11.2-36.3,4.8-72.6,9.5-108.9,14.3-1.8,5.8-5.9,10.7-11,13.7-9.5,5.7-22.4,4.9-31-2.1-4.4-3.5-7.6-8.5-8.6-14.1-1-5-.1-10.4,2.3-14.9,3-5.6,8.2-9.8,14.2-11.9,6.3-2.2,13.4-2,19.6.5,4.8,1.9,9.1,5.4,11.9,9.8,3.3-.3,6.6-.6,9.9-.8-1.2-8.5-1.4-17.1-.5-25.6,19.6-.8,39.2-1.7,58.8-2.6,11.5-.5,22.9-.9,34.4-1.6,2.1,4.7,5.8,8.8,10.6,10.7,4.5,1.9,9.8,1.7,14.1-.8,4.7-2.6,7.8-7.7,8.5-13,.7-5.3-.6-10.8-3.7-15.1-2.6-3.7-6.5-6.5-10.9-7.6-4.4-1.1-9.2-.2-12.9,2.4-3.5,2.5-5.9,6.4-6.9,10.5-49.9,1.4-99.9,2.8-149.8,4.2-2.3,6.1-7.3,11-13.3,13.7-9.7,4.4-21.9,2.9-30-4.3-4.2-3.7-7.2-8.8-7.9-14.4-.9-6,.9-12.2,4.7-16.9,4.1-5.3,10.4-8.8,16.9-9.8,5.3-.8,10.8-.2,15.7,1.9,4.8,2,9,5.5,11.8,9.9,23.1,0,46.1,0,69.2,0,6.9-14.1,17.2-26.4,29.7-35.8,10.6-7.9,22.8-13.6,35.6-16.7ZM37.4,107.3c-3.9.9-7.4,3.7-8.8,7.4-1.3,3.1-.9,6.7.8,9.6,1.8,3,4.9,5.1,8.3,5.9,5.1,1.2,10.9-.7,14-5,2.4-3.3,2.8-7.9.9-11.5-2.7-5.4-9.4-8-15.1-6.5ZM343.5,125c-2.3.7-3.7,3.1-3.7,5.4-.1,3.1,2.4,6.2,5.7,6.1,3.4-.2,5.6-4,4.7-7.1-.5-2.9-3.7-5.4-6.7-4.4ZM89.4,166.6c-5.4.9-10.3,5.6-10.4,11.3-.3,5.2,3.6,10,8.5,11.6,5.5,1.9,12.1-.2,15.2-5.1,2.2-3.3,2.4-7.7.6-11.2-2.5-5-8.5-7.6-13.9-6.6ZM338.5,168.5c-2.1.5-3.6,2.4-4,4.5-.7,3.3,1.8,7,5.3,7.1,3.3,0,5.7-3.6,5.1-6.7-.4-2.9-3.3-5.6-6.4-4.9Z"/><path class="cls-2" d="M194.6,79.7c4.3-1,8.7,1.5,10.7,5.2,1.9,3.3,2,7.7,0,11-1.6,2.6-4.7,4.2-7.7,4-3.8-.2-7.1-2.8-8.7-6.2-1.5-3.2-1.5-7.3.5-10.3,1.2-1.9,3.1-3.3,5.3-3.8Z"/><path class="cls-2" d="M230.5,118.8c2.9-.6,6,.7,7.9,2.8,3.3,3.5,3.8,9.6.6,13.3-2.1,2.6-5.8,3.5-8.9,2.3-4.9-1.8-7.6-7.8-5.9-12.7.9-2.9,3.3-5.3,6.3-5.7Z"/><path class="cls-2" d="M240.6,165.5c4.4-1.1,8.8,1.9,10.3,6,1.3,3.3.9,7.4-1.5,10.1-1.7,2.1-4.6,3.1-7.2,2.6-2.8-.4-5.2-2.3-6.6-4.7-2.1-3.6-1.9-8.5.9-11.6,1.1-1.2,2.5-2.1,4.1-2.5Z"/><path class="cls-2" d="M221.5,212.9c3-.6,6.3.6,8.3,2.9,2.9,3.1,3.6,8,1.9,11.8-1.2,2.9-3.8,5.3-6.9,5.8-2.8.5-5.7-.5-7.7-2.5-3.5-3.4-4.2-9.2-1.8-13.4,1.3-2.3,3.6-4.1,6.2-4.6Z"/><path class="cls-1" d="M709,46.8c12-1.2,24.5-.3,35.6,4.6,7.7,3.4,14,9.7,17.5,17.3,4.4,9.6,5.7,20.3,5.6,30.7,0,7.7-1.1,15.5-3.8,22.8-3,8.1-8.7,15.3-16.3,19.6-8.2,4.7-17.7,6.1-27,6.3-10.7,0-21.7-1.7-31.2-6.8-6.7-3.4-12-9.3-15.3-16-4.8-9.6-5.9-20.6-5.6-31.2.4-11.7,2.6-24.1,10.2-33.4,7.3-9,19-12.9,30.2-14.1ZM711.8,63.9c-5.8,1-11.5,4.1-14.7,9.3-4.2,6.8-4.8,15-5,22.8,0,6.6.4,13.3,2.5,19.6,1.5,4.5,4,8.8,8,11.4,5.7,3.9,12.9,4.6,19.6,3.9,6.2-.5,12.5-3.4,16-8.7,4.8-7,5.6-15.8,5.8-24,0-7.1-.5-14.3-3.1-21-1.8-4.6-5-8.8-9.5-11-6-3-13.1-3.4-19.7-2.3Z"/><path class="cls-1" d="M402.9,51.4c9.7-4.4,20.5-4.6,31-4.5,9.5,0,18.9,0,28.4,0,0,6,0,12.1,0,18.1-11,0-22,0-33,0-6.7.1-13.7,1.8-18.6,6.6-4,3.8-5.4,9.5-6.1,14.8-.9,8.1-.7,16.3.8,24.3,1.2,5.7,3.6,11.9,8.9,15.1,5.9,3.5,12.9,3.7,19.6,3.7,9.5,0,18.9,0,28.4,0,0,6,0,12.1,0,18.1-11.6,0-23.1,0-34.7,0-6.9-.2-14-.1-20.7-2.3-7.9-2.4-14.7-7.7-19-14.7-5.7-9.2-7.3-20.2-7.7-30.9v-4.4c.4-9.7,1.8-19.6,6.5-28.2,3.5-6.8,9.2-12.5,16.2-15.7Z"/><path class="cls-1" d="M476.3,46.9c8.4,0,16.8,0,25.2,0,7.7,13.1,15.4,26.1,23,39.2,8.1-13.1,16.1-26.2,24.2-39.2,8.6,0,17.1,0,25.7,0-12.4,18.2-24.9,36.3-37.3,54.5-.8,1.3-2.2,2.5-1.9,4.2,0,14,0,28,0,42h-21.5c0-14.2,0-28.4,0-42.5.2-1.9-1.4-3.3-2.3-4.9-11.7-17.8-23.4-35.5-35.1-53.3Z"/><path class="cls-1" d="M595,52.4c9.6-5.2,20.9-5.6,31.5-5.5,9.9,0,19.9,0,29.8,0,0,6,0,12.1,0,18.1-9.9,0-19.9,0-29.8,0-7.3-.2-15.3.9-21,5.9-4.1,3.5-5.8,9-6.6,14.2-1.1,8-.9,16.1.3,24,1,5.6,2.9,11.5,7.3,15.3,4.8,3.9,11.1,4.7,17.1,5,10.9,0,21.8,0,32.7,0,0,6,0,12.1,0,18.1-14.1,0-28.2.2-42.3-.2-9.7-.3-19.8-3.3-26.8-10.4-7.8-7.6-11.1-18.6-12.3-29.1-1.2-11.8-.7-24,3.3-35.2,3-8.4,8.7-16.1,16.7-20.3Z"/><path class="cls-1" d="M786.2,46.9c15.1,0,30.1,0,45.2,0,8.6,0,17.4,0,25.7,2.2,4.1,1,8.1,3,11.2,5.9,5.4,4.8,8.3,12.1,8.4,19.3,0,7-1.1,14.3-5.1,20.2-3.2,4.8-8.4,7.9-13.8,9.7,4,1.6,8.2,3.3,11,6.7,3.9,4.8,6,10.9,6.5,17,.6,6.6.9,13.3,2.8,19.6h-24.1c-1.4-5.9-1.9-12-2.6-18.1-.7-5.2-2.2-10.7-6.1-14.4-4.1-4.1-10.1-5.2-15.7-5.6-7.3-.4-14.6,0-22-.2v38.2c-7.2,0-14.4,0-21.5,0V46.9ZM807.7,65c0,8.8,0,17.6,0,26.4,9,0,18.1,0,27.1,0,3.9,0,8,0,11.7-1.3,3.7-1.5,5.9-5.2,6.3-9,.6-4.5.3-9.7-3.2-13-3.7-3.3-9-3.1-13.6-3.1-9.4,0-18.8,0-28.3,0Z"/><path class="cls-1" d="M915.2,50.4c6.4-3.1,13.6-3.4,20.5-3.5,12.1,0,24.2,0,36.2,0,0,6,0,12.1,0,18.1-9.8,0-19.6,0-29.4,0-4.6,0-9.2.2-13.7,1.4-5.6,1.4-9.9,6.1-11.7,11.4-1,3.5-1.3,7.1-1.6,10.7,18.8,0,37.6,0,56.4,0v18c-18.8,0-37.6,0-56.4,0,.6,5.3,1.7,10.7,4.9,15.1,2.3,3.2,6,5.1,9.8,6.2,6.8,1.9,13.9,1.7,20.9,1.7,6.9,0,13.9,0,20.9,0v18.1h-27.7c-7.7-.2-15.4-.3-22.9-2-7.7-1.7-14.8-6-19.6-12.3-7.3-9.3-10.2-21.2-10.6-32.8-.5-11.3,1.1-23.1,6.8-33.1,4.1-7.1,9.8-13.4,17.2-17Z"/><path class="cls-1" d="M896,176.7h7.7c0,1.2,0,2.5,0,3.7h36.9c0-1.2,0-2.5,0-3.7,2.6,0,5.1,0,7.7,0,0,1.2,0,2.5,0,3.7,3.7,0,7.3,0,11,0,0,2.6,0,5.2,0,7.8-3.7,0-7.3,0-11,0,0,1.9,0,3.9,0,5.8h-7.7c0-2,0-3.9,0-5.8-12.3,0-24.6,0-36.9,0,0,1.9,0,3.9,0,5.8-2.6,0-5.1,0-7.7,0v-5.8c-3.7,0-7.3,0-11,0,0-2.6,0-5.2,0-7.8h11c0-1.2,0-2.5,0-3.7Z"/><path class="cls-1" d="M422.9,177.2c2.5,0,5,0,7.6,0,0,15.6,0,31.3,0,46.9-2.5,0-5,0-7.6,0,0-15.6,0-31.3,0-46.9Z"/><path class="cls-1" d="M521.8,176.8c2.6,0,5.2,0,7.8,0-.1,1.5-.2,2.9-.4,4.4,19.6,0,39.3,0,58.9,0,0,2.5,0,5,0,7.6-9.7,0-19.5,0-29.2,0,0,4.1,0,8.2,0,12.3,9.3,0,18.6,0,27.9,0,0,2.5,0,5,0,7.6-9.3,0-18.6,0-28,0,0,5.6,0,11.2,0,16.8,9.7,0,19.5,0,29.2,0,0,2.5,0,5,0,7.5-9.7,0-19.5,0-29.2,0,0,4.2,0,8.4,0,12.6-2.5,0-5,0-7.6,0,0-4.2,0-8.4,0-12.5h-38.1c0-2.5,0-5,0-7.6,1.9,0,3.7,0,5.6,0,0-4.9,0-9.9,0-14.8.1-5,4.4-9.7,9.5-9.6,7.7,0,15.3,0,23,0v-12.3c-8.1,0-16.1,0-24.2,0-1.7,3.9-4,7.7-7.7,10.1-1.9,1.2-4.1,2-6.2,2.7,0-2.8,0-5.6,0-8.4,2.1-1.3,4.1-2.7,5.3-4.9,1.9-3.5,2.5-7.5,3.2-11.4ZM527.5,210.3c-.9,1.2-1,2.9-1,4.3,0,3.6,0,7.2,0,10.9h25v-16.8c-6.3,0-12.6,0-18.9,0-1.8,0-3.8.1-5,1.6Z"/><path class="cls-1" d="M670.7,177.1h7.7c0,2.3,0,4.7,0,7,6.6,0,13.2,0,19.9,0,3.6,0,7.5.8,10.1,3.5,2.4,2.2,3.3,5.6,3.1,8.7,0,9.9,0,19.8,0,29.7,0,3.7-1,7.7-4.1,10-3.4,2.9-8.1,2.6-12.3,2.6-5.6,0-11.1,0-16.7,0,0,2.3,0,4.6,0,7-2.6,0-5.1,0-7.7,0v-6.9c-6.1,0-12.3,0-18.4,0-3.7-.1-7.9-.2-10.9-2.8-2.9-2.5-3.6-6.6-3.7-10.3,0-9.5,0-19,0-28.6,0-3.4.8-7.1,3.4-9.5,2.5-2.5,6.1-3.3,9.5-3.3,6.7,0,13.4,0,20.1,0,0-2.3,0-4.7,0-7ZM646.6,193c-1.2,1.2-1.1,2.9-1.2,4.5,0,9.1,0,18.3,0,27.4,0,1.6,0,3.4,1.1,4.6,1.1,1.3,3,1.4,4.6,1.4,6.5,0,13.1,0,19.6,0,0-13,0-26,0-38.9-6.7,0-13.4,0-20.1,0-1.4,0-2.9,0-3.9,1.1ZM678.4,191.8c0,13,0,26,0,39.1,6.1,0,12.3,0,18.4,0,1.9,0,4.2,0,5.7-1.5,1.2-1.2,1.3-3,1.3-4.5,0-9.1,0-18.2,0-27.4,0-1.7-.1-3.7-1.6-4.7-2-1.1-4.4-.8-6.5-.8-5.7.1-11.5-.2-17.2-.1Z"/><path class="cls-1" d="M769.4,177.3c1.6-.3,3.3-.3,4.9-.3,16.7,0,33.5,0,50.2,0,5.4-.1,9.8,5,9.7,10.2,0,16.2.1,32.3,0,48.5,0,5.4-5,9.6-10.1,9.5-17.1,0-34.3,0-51.4,0-3.2,0-6.5-1.2-8.6-3.8-2-2.3-2.1-5.6-2.1-8.5,0-15,0-30,0-45.1,0-4.6,2.7-9.6,7.5-10.6ZM774.5,184.6c-2.3-.1-4.8,1.3-4.8,3.8-.1,14.1,0,28.1,0,42.2,0,2-.3,4.3,1.1,5.9,1.2,1.2,3.1,1.2,4.7,1.2,15.6,0,31.2,0,46.8,0,2.7.2,4.6-2.3,4.4-4.9,0-14.1,0-28.1,0-42.2,0-1.7,0-3.6-1.3-4.8-1.5-1.3-3.5-1.3-5.4-1.3-15.2,0-30.3,0-45.5,0Z"/><path class="cls-1" d="M395.5,204.4c.9-8.2,1.8-16.5,2.7-24.7,2.5,0,5.1,0,7.6,0-.9,8.6-1.8,17.1-2.8,25.7-.4,3.7-2,7.4-5,9.6-2.3,2-5.2,2.6-8.1,2.9,0-2.5,0-5,0-7.5,1.3-.4,2.8-.6,3.8-1.6,1.2-1.1,1.6-2.8,1.8-4.4Z"/><path class="cls-1" d="M448.6,179.7c2.5,0,5.1,0,7.6,0,.9,7.9,1.8,15.7,2.6,23.6.2,1.9.5,4.1,2,5.5.9,1,2.4,1.2,3.6,1.5,0,2.5,0,5.1,0,7.6-3.4-.3-6.9-1.4-9.3-4.1-2.3-2.3-3.4-5.6-3.7-8.7-.9-8.5-1.8-16.9-2.7-25.4Z"/><path class="cls-1" d="M485.7,181.5c-.3-1.5,1.3-1.9,2.4-1.3,0,20.9,0,41.7,0,62.6-1.1.3-2.7.3-2.4-1.3,0-20,0-40,0-60Z"/><path class="cls-1" d="M611.5,180.1c.5-.6,1.3,0,1.9.2,0,18.9,0,37.7,0,56.6,0,1.9.1,3.8-.1,5.7-.6.7-1.5.3-2.3.2-.1-20,0-40.1,0-60.1.2-.8-.3-2,.5-2.6Z"/><path class="cls-1" d="M735,180.5c.5-1,1.5-.4,2.3-.2,0,20.6,0,41.2,0,61.8,0,1.3-1.6.9-2.3.7,0-17,0-34,0-51,0-3.8-.2-7.6.1-11.3Z"/><path class="cls-1" d="M858.7,181.5c-.3-1.6,1.3-2,2.4-1.3,0,20.6,0,41.2,0,61.8,0,1.7-2.9,1.1-2.4-.5,0-20,0-40,0-60Z"/><path class="cls-1" d="M774.4,189c15.7,0,31.5,0,47.2,0,0,2.6,0,5.1,0,7.7-6.6,0-13.2,0-19.8,0,0,3,0,6,0,9h19c0,2.5,0,5,0,7.6-6.3,0-12.6,0-19,0,0,4.2,0,8.5,0,12.7,2.7,0,5.3,0,8,0,0-2.2,0-4.4,0-6.6,2.6,0,5.1,0,7.7,0v6.6c1.4,0,2.7,0,4.1,0,0,2.5,0,5,0,7.6-15.7,0-31.5,0-47.2,0,0-2.5,0-5,0-7.6,6.6,0,13.2,0,19.8,0,0-4.2,0-8.5,0-12.7-6.2-.1-12.5.2-18.7-.1-.1-2.5,0-5,0-7.4,6.2,0,12.5,0,18.7,0,0-3,0-6,0-9-6.6,0-13.2,0-19.8,0,0-2.6,0-5.1,0-7.7Z"/><path class="cls-1" d="M925.1,198.4c2.5,0,4.9,0,7.4,0,.4,8.1.5,16.2.9,24.3-.1,1.2.8,1.9,1.7,2.5,0,2.4,0,4.9,0,7.3-2.9-.3-5.9-1.4-7.6-3.8-2.1-2.9-1.7-6.7-1.8-10.1-.2-6.7-.5-13.5-.5-20.2Z"/><path class="cls-1" d="M906.4,198.4c2.5,0,5,0,7.6,0,0,11.5,0,23,0,34.5-.1,2.5,1.8,4.9,4.4,4.8,8.4,0,16.7,0,25.1,0,0,2.5,0,5,0,7.5-8.3,0-16.6,0-24.9,0-2.3,0-4.6,0-6.7-1-3.3-1.7-5.5-5.3-5.5-9.1,0-12.3,0-24.5,0-36.8Z"/><path class="cls-1" d="M945.8,198.4c2.5,0,5.1,0,7.6,0,1.1,11.6,2.1,23.2,3.4,34.7,0,1.8,1.2,3.2,2.5,4.3,0,2.7,0,5.3,0,8-4.9-1.4-9.4-5.2-10-10.5-1.3-12.2-2.3-24.3-3.5-36.5Z"/><path class="cls-1" d="M890.8,200.1c2.5,0,5,0,7.5,0-1.4,11.3-2.7,22.7-4.1,34-.4,2.6-.5,5.4-2.3,7.5-1.7,2.3-4.6,3.2-7.4,3.4,0-2.4,0-4.9,0-7.3.9-.6,1.8-1.4,1.8-2.6,1.5-11.7,2.9-23.4,4.4-35Z"/><path class="cls-1" d="M444.5,227.7c3.4-1.8,6-4.6,8.5-7.5,3,0,6,0,9,0-2.4,4.2-5.4,8.1-9.3,11.1-7.3,5.7-16.3,8.9-25.2,11.1-12.1,2.9-24.6,3.2-37,3.5,0-2.6,0-5.3,0-7.9,9,.4,18.1-.2,27-1.6,9.4-1.5,18.7-4.1,27-8.8Z"/></svg>