<?xml version="1.0" encoding="UTF-8"?>
<svg id="Layer_1" xmlns="http://www.w3.org/2000/svg" version="1.1" viewBox="0 0 67.4 39.47">
  <!-- Generator: Adobe Illustrator 29.6.1, SVG Export Plug-In . SVG Version: 2.1.1 Build 9)  -->
  <defs>
    <style>
      .st0 {
        fill: #036eb7;
      }
    </style>
  </defs>
  <path class="st0" d="M36.26,1.12c2.98-.72,6.13-.72,9.11.04,2.32.58,4.55,1.61,6.5,3,3.11,2.24,5.55,5.43,6.83,9.05h-6.52c-2.13-1.88-4.27-3.77-6.42-5.65-.27-.21-.5-.46-.79-.68h-5.43c-.33-1.01-1.03-1.88-1.95-2.4-.91-.52-2.05-.64-3.02-.23-1.03.41-1.78,1.35-2.05,2.44-.48,1.86.44,3.96,2.15,4.85.91.48,2.03.58,2.98.17,1.01-.41,1.72-1.35,1.99-2.38h5.11c2.38,2.03,4.76,4.06,7.12,6.09,3.6-.1,7.19-.19,10.79-.27.14-.46.41-.89.79-1.18.54-.43,1.33-.5,1.95-.21.73.33,1.22,1.08,1.32,1.88.1.73-.15,1.53-.7,2.03-.5.48-1.28.66-1.93.43-.44-.14-.79-.46-1.08-.81-1.1.06-2.22.08-3.33.12.17,1.55.17,3.11,0,4.66-1.99.14-3.98.25-5.98.39-1.37,2.46-2.77,4.89-4.14,7.35-.08.12-.12.31-.29.33-1.74.44-3.48.89-5.24,1.33-.48-.73-1.22-1.32-2.07-1.57-.89-.25-1.88-.12-2.65.39-.95.6-1.59,1.62-1.76,2.73-.17,1.01,0,2.05.52,2.94.5.89,1.39,1.61,2.42,1.82.89.19,1.86,0,2.61-.56.89-.62,1.45-1.64,1.61-2.71,2.09-.62,4.18-1.24,6.27-1.84,1.47-2.53,2.9-5.09,4.37-7.62,2.11-.44,4.2-.89,6.31-1.35.14-.54.46-1.06.95-1.37.54-.35,1.26-.39,1.84-.12.97.44,1.47,1.61,1.28,2.63-.14.83-.75,1.59-1.59,1.76-.66.15-1.35-.08-1.82-.54-1.32.35-2.65.7-3.96,1.04-1.47,3.5-4.02,6.52-7.21,8.59-1.7,1.1-3.6,1.93-5.57,2.46-2.88.73-5.92.79-8.82.17-2.51-.54-4.93-1.61-7.02-3.11-2.17-1.55-3.98-3.54-5.34-5.82,5.94-.99,11.89-1.95,17.83-2.94.54.85,1.41,1.49,2.4,1.66.81.15,1.7-.06,2.36-.56.66-.48,1.1-1.24,1.28-2.03.27-1.18-.06-2.46-.79-3.38-.58-.73-1.43-1.26-2.38-1.35-.81-.1-1.66.17-2.28.7-.66.54-1.04,1.33-1.18,2.17-7.02.93-14.04,1.84-21.06,2.77-.35,1.12-1.14,2.07-2.13,2.65-1.84,1.1-4.33.95-6-.41-.85-.68-1.47-1.64-1.66-2.73-.19-.97-.02-2.01.44-2.88.58-1.08,1.59-1.9,2.75-2.3,1.22-.43,2.59-.39,3.79.1.93.37,1.76,1.04,2.3,1.9.64-.06,1.28-.12,1.91-.15-.23-1.64-.27-3.31-.1-4.95,3.79-.15,7.58-.33,11.37-.5,2.22-.1,4.43-.17,6.65-.31.41.91,1.12,1.7,2.05,2.07.87.37,1.9.33,2.73-.15.91-.5,1.51-1.49,1.64-2.51s-.12-2.09-.72-2.92c-.5-.72-1.26-1.26-2.11-1.47s-1.78-.04-2.49.46c-.68.48-1.14,1.24-1.33,2.03-9.65.27-19.32.54-28.97.81-.44,1.18-1.41,2.13-2.57,2.65-1.88.85-4.24.56-5.8-.83-.81-.72-1.39-1.7-1.53-2.79-.17-1.16.17-2.36.91-3.27.79-1.03,2.01-1.7,3.27-1.9,1.03-.15,2.09-.04,3.04.37.93.39,1.74,1.06,2.28,1.91h13.38c1.33-2.73,3.33-5.11,5.74-6.92,2.05-1.53,4.41-2.63,6.89-3.23h-.02ZM5.16,11.37c-.75.17-1.43.72-1.7,1.43-.25.6-.17,1.3.15,1.86.35.58.95.99,1.61,1.14.99.23,2.11-.14,2.71-.97.46-.64.54-1.53.17-2.22-.52-1.04-1.82-1.55-2.92-1.26l-.02.02ZM64.37,14.79c-.44.14-.72.6-.72,1.04-.02.6.46,1.2,1.1,1.18.66-.04,1.08-.77.91-1.37-.1-.56-.72-1.04-1.3-.85ZM15.22,22.84c-1.04.17-1.99,1.08-2.01,2.19-.06,1.01.7,1.93,1.64,2.24,1.06.37,2.34-.04,2.94-.99.43-.64.46-1.49.12-2.17-.48-.97-1.64-1.47-2.69-1.28ZM63.4,23.2c-.41.1-.7.46-.77.87-.14.64.35,1.35,1.03,1.37.64,0,1.1-.7.99-1.3-.08-.56-.64-1.08-1.24-.95h0Z"/>
  <path class="st0" d="M35.57,6.03c.83-.19,1.68.29,2.07,1.01.37.64.39,1.49,0,2.13-.31.5-.91.81-1.49.77-.73-.04-1.37-.54-1.68-1.2-.29-.62-.29-1.41.1-1.99.23-.37.6-.64,1.03-.73l-.02.02Z"/>
  <path class="st0" d="M42.51,13.59c.56-.12,1.16.14,1.53.54.64.68.73,1.86.12,2.57-.41.5-1.12.68-1.72.44-.95-.35-1.47-1.51-1.14-2.46.17-.56.64-1.03,1.22-1.1h0Z"/>
  <path class="st0" d="M44.46,22.62c.85-.21,1.7.37,1.99,1.16.25.64.17,1.43-.29,1.95-.33.41-.89.6-1.39.5-.54-.08-1.01-.44-1.28-.91-.41-.7-.37-1.64.17-2.24.21-.23.48-.41.79-.48v.02Z"/>
  <path class="st0" d="M40.77,31.79c.58-.12,1.22.12,1.61.56.56.6.7,1.55.37,2.28-.23.56-.73,1.03-1.33,1.12-.54.1-1.1-.1-1.49-.48-.68-.66-.81-1.78-.35-2.59.25-.44.7-.79,1.2-.89Z"/>
</svg>